G04*
G04 #@! TF.GenerationSoftware,Altium Limited,Altium Designer,19.1.7 (138)*
G04*
G04 Layer_Color=255*
%FSLAX25Y25*%
%MOIN*%
G70*
G01*
G75*
G04:AMPARAMS|DCode=16|XSize=35.43mil|YSize=68.9mil|CornerRadius=1.95mil|HoleSize=0mil|Usage=FLASHONLY|Rotation=270.000|XOffset=0mil|YOffset=0mil|HoleType=Round|Shape=RoundedRectangle|*
%AMROUNDEDRECTD16*
21,1,0.03543,0.06500,0,0,270.0*
21,1,0.03154,0.06890,0,0,270.0*
1,1,0.00390,-0.03250,-0.01577*
1,1,0.00390,-0.03250,0.01577*
1,1,0.00390,0.03250,0.01577*
1,1,0.00390,0.03250,-0.01577*
%
%ADD16ROUNDEDRECTD16*%
G04:AMPARAMS|DCode=17|XSize=125.98mil|YSize=68.9mil|CornerRadius=2.07mil|HoleSize=0mil|Usage=FLASHONLY|Rotation=270.000|XOffset=0mil|YOffset=0mil|HoleType=Round|Shape=RoundedRectangle|*
%AMROUNDEDRECTD17*
21,1,0.12598,0.06476,0,0,270.0*
21,1,0.12185,0.06890,0,0,270.0*
1,1,0.00413,-0.03238,-0.06093*
1,1,0.00413,-0.03238,0.06093*
1,1,0.00413,0.03238,0.06093*
1,1,0.00413,0.03238,-0.06093*
%
%ADD17ROUNDEDRECTD17*%
%ADD18R,0.04528X0.02362*%
%ADD19R,0.04724X0.05512*%
%ADD20R,0.05512X0.04724*%
%ADD21R,0.04331X0.05512*%
%ADD22R,0.05906X0.05906*%
%ADD23R,0.05906X0.05906*%
%ADD24R,0.05512X0.04331*%
%ADD45R,0.15748X0.07087*%
%ADD46R,0.07087X0.15748*%
%ADD47R,0.05315X0.05315*%
%ADD48C,0.05315*%
%ADD49C,0.06000*%
%ADD50C,0.04842*%
%ADD51R,0.04842X0.04842*%
%ADD52C,0.05906*%
%ADD53R,0.05512X0.05512*%
%ADD54C,0.05512*%
D16*
X151303Y12874D02*
D03*
Y21929D02*
D03*
Y30984D02*
D03*
D17*
X126697Y21929D02*
D03*
D18*
X169071Y11526D02*
D03*
Y4045D02*
D03*
X177929Y7785D02*
D03*
D19*
X79957Y184429D02*
D03*
X87043D02*
D03*
X79957Y193929D02*
D03*
X87043D02*
D03*
X150543Y186929D02*
D03*
X143457D02*
D03*
D20*
X60000Y93386D02*
D03*
Y100472D02*
D03*
X60181Y119176D02*
D03*
Y112090D02*
D03*
X60000Y137472D02*
D03*
Y130386D02*
D03*
D21*
X105547Y24429D02*
D03*
X111453D02*
D03*
X114047Y187429D02*
D03*
X119953D02*
D03*
X105547Y11429D02*
D03*
X111453D02*
D03*
D22*
X35500Y192319D02*
D03*
Y178539D02*
D03*
X49500Y192319D02*
D03*
Y178539D02*
D03*
X127500Y117929D02*
D03*
X137500Y97520D02*
D03*
D23*
X8610Y100929D02*
D03*
X22390D02*
D03*
X75493Y160976D02*
D03*
D24*
X54000Y151476D02*
D03*
Y157382D02*
D03*
X37134Y151795D02*
D03*
Y157701D02*
D03*
X20634Y151795D02*
D03*
Y157701D02*
D03*
D45*
X70000Y54429D02*
D03*
Y31594D02*
D03*
D46*
X88898Y42618D02*
D03*
D47*
X32500Y13429D02*
D03*
D48*
X24626D02*
D03*
D49*
X85529Y135929D02*
D03*
X10000Y50000D02*
D03*
X106000Y35929D02*
D03*
X108000Y195429D02*
D03*
X44000Y129929D02*
D03*
X190000Y190000D02*
D03*
Y10000D02*
D03*
X10000Y190000D02*
D03*
D50*
X35256Y133929D02*
D03*
Y123929D02*
D03*
X4744D02*
D03*
D51*
Y133929D02*
D03*
D52*
X166315Y54472D02*
D03*
X186000Y68252D02*
D03*
X166315Y82032D02*
D03*
X186000Y95811D02*
D03*
X166315Y109591D02*
D03*
X186000Y123370D02*
D03*
X166315Y137150D02*
D03*
X186000Y150929D02*
D03*
X166315Y164709D02*
D03*
X127500Y147929D02*
D03*
Y137929D02*
D03*
Y127929D02*
D03*
X119783Y97520D02*
D03*
Y71929D02*
D03*
X137500D02*
D03*
X75493Y150976D02*
D03*
Y140976D02*
D03*
Y130976D02*
D03*
Y120976D02*
D03*
Y110976D02*
D03*
Y100976D02*
D03*
Y90976D02*
D03*
Y80976D02*
D03*
Y70976D02*
D03*
X105493Y160976D02*
D03*
Y150976D02*
D03*
Y140976D02*
D03*
Y130976D02*
D03*
Y120976D02*
D03*
Y110976D02*
D03*
Y100976D02*
D03*
Y90976D02*
D03*
Y80976D02*
D03*
Y70976D02*
D03*
D53*
X196000Y21779D02*
D03*
D54*
Y29653D02*
D03*
Y37527D02*
D03*
M02*
