G04*
G04 #@! TF.GenerationSoftware,Altium Limited,Altium Designer,19.1.7 (138)*
G04*
G04 Layer_Color=8421504*
%FSLAX25Y25*%
%MOIN*%
G70*
G01*
G75*
G04:AMPARAMS|DCode=16|XSize=35.43mil|YSize=68.9mil|CornerRadius=1.95mil|HoleSize=0mil|Usage=FLASHONLY|Rotation=270.000|XOffset=0mil|YOffset=0mil|HoleType=Round|Shape=RoundedRectangle|*
%AMROUNDEDRECTD16*
21,1,0.03543,0.06500,0,0,270.0*
21,1,0.03154,0.06890,0,0,270.0*
1,1,0.00390,-0.03250,-0.01577*
1,1,0.00390,-0.03250,0.01577*
1,1,0.00390,0.03250,0.01577*
1,1,0.00390,0.03250,-0.01577*
%
%ADD16ROUNDEDRECTD16*%
G04:AMPARAMS|DCode=17|XSize=125.98mil|YSize=68.9mil|CornerRadius=2.07mil|HoleSize=0mil|Usage=FLASHONLY|Rotation=270.000|XOffset=0mil|YOffset=0mil|HoleType=Round|Shape=RoundedRectangle|*
%AMROUNDEDRECTD17*
21,1,0.12598,0.06476,0,0,270.0*
21,1,0.12185,0.06890,0,0,270.0*
1,1,0.00413,-0.03238,-0.06093*
1,1,0.00413,-0.03238,0.06093*
1,1,0.00413,0.03238,0.06093*
1,1,0.00413,0.03238,-0.06093*
%
%ADD17ROUNDEDRECTD17*%
%ADD18R,0.04528X0.02362*%
%ADD19R,0.04724X0.05512*%
%ADD20R,0.05512X0.04724*%
%ADD21R,0.04331X0.05512*%
%ADD22R,0.05906X0.05906*%
%ADD23R,0.05906X0.05906*%
%ADD24R,0.05512X0.04331*%
D16*
X151303Y12874D02*
D03*
Y21929D02*
D03*
Y30984D02*
D03*
D17*
X126697Y21929D02*
D03*
D18*
X169071Y11526D02*
D03*
Y4045D02*
D03*
X177929Y7785D02*
D03*
D19*
X79957Y184429D02*
D03*
X87043D02*
D03*
X79957Y193929D02*
D03*
X87043D02*
D03*
X150543Y186929D02*
D03*
X143457D02*
D03*
D20*
X60000Y93386D02*
D03*
Y100472D02*
D03*
X60181Y119176D02*
D03*
Y112090D02*
D03*
X60000Y137472D02*
D03*
Y130386D02*
D03*
D21*
X105547Y24429D02*
D03*
X111453D02*
D03*
X114047Y187429D02*
D03*
X119953D02*
D03*
X105547Y11429D02*
D03*
X111453D02*
D03*
D22*
X35500Y192319D02*
D03*
Y178539D02*
D03*
X49500Y192319D02*
D03*
Y178539D02*
D03*
D23*
X8610Y100929D02*
D03*
X22390D02*
D03*
D24*
X54000Y151476D02*
D03*
Y157382D02*
D03*
X37134Y151795D02*
D03*
Y157701D02*
D03*
X20634Y151795D02*
D03*
Y157701D02*
D03*
M02*
