G04*
G04 #@! TF.GenerationSoftware,Altium Limited,Altium Designer,19.1.7 (138)*
G04*
G04 Layer_Color=65535*
%FSLAX25Y25*%
%MOIN*%
G70*
G01*
G75*
%ADD10C,0.00984*%
%ADD11C,0.00787*%
%ADD12C,0.02362*%
%ADD13C,0.00394*%
%ADD14C,0.00500*%
%ADD15C,0.01000*%
D10*
X151795Y8937D02*
G03*
X151795Y8937I-492J0D01*
G01*
X169563Y14872D02*
G03*
X169563Y14872I-492J0D01*
G01*
X137992Y102638D02*
G03*
X137992Y102638I-492J0D01*
G01*
X75986Y166095D02*
G03*
X75986Y166095I-492J0D01*
G01*
D11*
X87993Y169126D02*
G03*
X92993Y169126I2500J0D01*
G01*
X87717Y51673D02*
Y57972D01*
Y886D02*
Y33563D01*
X79055Y57972D02*
X87717D01*
X52284D02*
X60945D01*
X52284Y886D02*
X87717D01*
X52284D02*
Y57972D01*
X146677Y8740D02*
Y35118D01*
X131323Y8740D02*
Y35118D01*
Y8740D02*
X146677D01*
X131323Y35118D02*
X146677D01*
X172713Y13691D02*
X176256D01*
Y10541D02*
Y13691D01*
X172713Y1880D02*
X176256D01*
Y5029D01*
X16752Y9492D02*
X32500D01*
X16752D02*
Y29177D01*
X40374D01*
Y13429D02*
Y29177D01*
X83500Y182067D02*
Y186791D01*
Y191567D02*
Y196291D01*
X57638Y96929D02*
X62362D01*
X147000Y184567D02*
Y189291D01*
X6319Y115445D02*
X33681D01*
X2323Y142413D02*
X33681D01*
X122500Y112929D02*
X132500D01*
X122500D02*
Y152929D01*
X132500Y112929D02*
Y152929D01*
X122500D02*
X132500D01*
X116850Y76457D02*
Y93008D01*
X140433Y76457D02*
Y93008D01*
X124311Y72933D02*
X133087D01*
X124197Y96516D02*
X133087D01*
X40028Y174012D02*
Y181492D01*
X30972Y174012D02*
Y181492D01*
Y174012D02*
X40028D01*
X32547Y198028D02*
X38453D01*
X40028Y189366D02*
Y196059D01*
X30972D02*
X32547Y198028D01*
X38453D02*
X40028Y196059D01*
X30972Y189366D02*
Y196059D01*
X54028Y174012D02*
Y181492D01*
X44973Y174012D02*
Y181492D01*
Y174012D02*
X54028D01*
X46547Y198028D02*
X52453D01*
X54028Y189366D02*
Y196059D01*
X44973D02*
X46547Y198028D01*
X52453D02*
X54028Y196059D01*
X44973Y189366D02*
Y196059D01*
X191000Y17842D02*
Y41464D01*
X185100Y17842D02*
Y41464D01*
X191000D01*
X185100Y17842D02*
X191000D01*
X80060Y62827D02*
Y169126D01*
X100926Y62827D02*
Y169126D01*
X80060D02*
X87993D01*
X92993D02*
X100926D01*
X80060Y62827D02*
X100926D01*
X57819Y115633D02*
X62543D01*
X57638Y133929D02*
X62362D01*
X19437Y105457D02*
X26917D01*
X19437Y96402D02*
X26917D01*
Y105457D01*
X2902Y97976D02*
Y103882D01*
X4870Y105457D02*
X11563D01*
X2902Y97976D02*
X4870Y96402D01*
X2902Y103882D02*
X4870Y105457D01*
X4870Y96402D02*
X11563D01*
D12*
X85179Y165189D02*
G03*
X85179Y165189I-1181J0D01*
G01*
D13*
X147811Y177504D02*
X195055D01*
X147811Y47583D02*
Y177504D01*
Y47583D02*
X195055D01*
Y177504D01*
D14*
X143501Y47500D02*
Y48833D01*
Y48166D01*
X145500D01*
X143501Y49499D02*
Y50166D01*
Y49833D01*
X145500D01*
Y49499D01*
Y50166D01*
X143501Y51165D02*
X145500D01*
Y52498D01*
X143501Y54498D02*
Y53165D01*
X145500D01*
Y54498D01*
X144500Y53165D02*
Y53831D01*
X145167Y57164D02*
X145500Y57497D01*
Y58163D01*
X145167Y58496D01*
X143834D01*
X143501Y58163D01*
Y57497D01*
X143834Y57164D01*
X144167D01*
X144500Y57497D01*
Y58496D01*
X18500Y187166D02*
X18833Y187499D01*
X19500D01*
X19833Y187166D01*
Y186833D01*
X19500Y186500D01*
X19166D01*
X19500D01*
X19833Y186167D01*
Y185833D01*
X19500Y185500D01*
X18833D01*
X18500Y185833D01*
X20499Y187499D02*
Y186167D01*
X21166Y185500D01*
X21832Y186167D01*
Y187499D01*
X22499Y187166D02*
X22832Y187499D01*
X23498D01*
X23832Y187166D01*
Y186833D01*
X23498Y186500D01*
X23165D01*
X23498D01*
X23832Y186167D01*
Y185833D01*
X23498Y185500D01*
X22832D01*
X22499Y185833D01*
X27497Y187499D02*
X26831D01*
X26497Y187166D01*
Y185833D01*
X26831Y185500D01*
X27497D01*
X27830Y185833D01*
Y187166D01*
X27497Y187499D01*
X28497Y185500D02*
Y187499D01*
X29830Y185500D01*
Y187499D01*
X58333D02*
X57000D01*
Y186500D01*
X57666Y186833D01*
X58000D01*
X58333Y186500D01*
Y185833D01*
X58000Y185500D01*
X57333D01*
X57000Y185833D01*
X58999Y187499D02*
Y186167D01*
X59666Y185500D01*
X60332Y186167D01*
Y187499D01*
X63998D02*
X63331D01*
X62998Y187166D01*
Y185833D01*
X63331Y185500D01*
X63998D01*
X64331Y185833D01*
Y187166D01*
X63998Y187499D01*
X64997Y185500D02*
Y187499D01*
X66330Y185500D01*
Y187499D01*
X134734Y146133D02*
X134401Y145800D01*
Y145133D01*
X134734Y144800D01*
X136067D01*
X136400Y145133D01*
Y145800D01*
X136067Y146133D01*
X135400D01*
Y145466D01*
X136400Y146799D02*
X134401D01*
X136400Y148132D01*
X134401D01*
Y148799D02*
X136400D01*
Y149798D01*
X136067Y150132D01*
X134734D01*
X134401Y149798D01*
Y148799D01*
Y134400D02*
Y135733D01*
Y135066D01*
X136400D01*
X134401Y137732D02*
Y136399D01*
X136400D01*
Y137732D01*
X135400Y136399D02*
Y137066D01*
X134734Y139732D02*
X134401Y139398D01*
Y138732D01*
X134734Y138399D01*
X135067D01*
X135400Y138732D01*
Y139398D01*
X135733Y139732D01*
X136067D01*
X136400Y139398D01*
Y138732D01*
X136067Y138399D01*
X134401Y140398D02*
Y141731D01*
Y141065D01*
X136400D01*
X136500Y125100D02*
X134501D01*
Y126100D01*
X134834Y126433D01*
X135500D01*
X135834Y126100D01*
Y125100D01*
Y125767D02*
X136500Y126433D01*
X134834Y128432D02*
X134501Y128099D01*
Y127433D01*
X134834Y127099D01*
X135167D01*
X135500Y127433D01*
Y128099D01*
X135834Y128432D01*
X136167D01*
X136500Y128099D01*
Y127433D01*
X136167Y127099D01*
X134501Y129099D02*
Y130432D01*
Y129765D01*
X136500D01*
X135500Y113500D02*
Y114833D01*
X134834Y114166D02*
X136167D01*
X134834Y115499D02*
X134501Y115833D01*
Y116499D01*
X134834Y116832D01*
X135167D01*
X135500Y116499D01*
Y116166D01*
Y116499D01*
X135834Y116832D01*
X136167D01*
X136500Y116499D01*
Y115833D01*
X136167Y115499D01*
X134501Y117499D02*
X135834D01*
X136500Y118165D01*
X135834Y118832D01*
X134501D01*
X134834Y119498D02*
X134501Y119831D01*
Y120498D01*
X134834Y120831D01*
X135167D01*
X135500Y120498D01*
Y120165D01*
Y120498D01*
X135834Y120831D01*
X136167D01*
X136500Y120498D01*
Y119831D01*
X136167Y119498D01*
X32333Y6666D02*
X32000Y6999D01*
X31333D01*
X31000Y6666D01*
Y6333D01*
X31333Y6000D01*
X32000D01*
X32333Y5666D01*
Y5333D01*
X32000Y5000D01*
X31333D01*
X31000Y5333D01*
X32999Y6999D02*
Y5000D01*
X33999D01*
X34332Y5333D01*
Y6666D01*
X33999Y6999D01*
X32999D01*
X34999Y5000D02*
Y6333D01*
X35665Y6999D01*
X36332Y6333D01*
Y5000D01*
Y6000D01*
X34999D01*
X22333Y6666D02*
X22000Y6999D01*
X21333D01*
X21000Y6666D01*
Y6333D01*
X21333Y6000D01*
X22000D01*
X22333Y5666D01*
Y5333D01*
X22000Y5000D01*
X21333D01*
X21000Y5333D01*
X24332Y6666D02*
X23999Y6999D01*
X23333D01*
X22999Y6666D01*
Y5333D01*
X23333Y5000D01*
X23999D01*
X24332Y5333D01*
X24999Y6999D02*
Y5000D01*
X26332D01*
D15*
X166650Y24834D02*
Y18835D01*
X169649D01*
X170649Y19835D01*
Y23834D01*
X169649Y24834D01*
X166650D01*
X175647Y18835D02*
Y24834D01*
X172648Y21834D01*
X176647D01*
X140499Y176498D02*
X138499D01*
X139499D01*
Y171500D01*
X138499Y170500D01*
X137500D01*
X136500Y171500D01*
X142498Y170500D02*
X144497D01*
X143498D01*
Y176498D01*
X142498Y175498D01*
X44499Y57927D02*
X42499D01*
X43499D01*
Y52929D01*
X42499Y51929D01*
X41500D01*
X40500Y52929D01*
X46498Y56928D02*
X47498Y57927D01*
X49497D01*
X50497Y56928D01*
Y55928D01*
X49497Y54928D01*
X48497D01*
X49497D01*
X50497Y53929D01*
Y52929D01*
X49497Y51929D01*
X47498D01*
X46498Y52929D01*
X118500Y39927D02*
Y34929D01*
X119500Y33929D01*
X121499D01*
X122499Y34929D01*
Y39927D01*
X128497Y33929D02*
X124498D01*
X128497Y37928D01*
Y38928D01*
X127497Y39927D01*
X125498D01*
X124498Y38928D01*
X72343Y179225D02*
Y174226D01*
X73343Y173226D01*
X75343D01*
X76342Y174226D01*
Y179225D01*
X78342Y173226D02*
X80341D01*
X79341D01*
Y179225D01*
X78342Y178225D01*
X124999Y65428D02*
X123999Y66427D01*
X122000D01*
X121000Y65428D01*
Y64428D01*
X122000Y63428D01*
X123999D01*
X124999Y62428D01*
Y61429D01*
X123999Y60429D01*
X122000D01*
X121000Y61429D01*
X126998Y66427D02*
Y60429D01*
X128997Y62428D01*
X130997Y60429D01*
Y66427D01*
X132996Y60429D02*
X134995D01*
X133996D01*
Y66427D01*
X132996Y65428D01*
X6499Y149927D02*
X5499Y150927D01*
X3500D01*
X2500Y149927D01*
Y148928D01*
X3500Y147928D01*
X5499D01*
X6499Y146929D01*
Y145929D01*
X5499Y144929D01*
X3500D01*
X2500Y145929D01*
X8498Y144929D02*
X10497D01*
X9498D01*
Y150927D01*
X8498Y149927D01*
X44681Y117633D02*
Y123631D01*
X47680D01*
X48680Y122631D01*
Y120632D01*
X47680Y119632D01*
X44681D01*
X46680D02*
X48680Y117633D01*
X54678Y123631D02*
X52678Y122631D01*
X50679Y120632D01*
Y118632D01*
X51679Y117633D01*
X53678D01*
X54678Y118632D01*
Y119632D01*
X53678Y120632D01*
X50679D01*
X44000Y135429D02*
Y141427D01*
X46999D01*
X47999Y140427D01*
Y138428D01*
X46999Y137428D01*
X44000D01*
X45999D02*
X47999Y135429D01*
X53997Y141427D02*
X49998D01*
Y138428D01*
X51997Y139428D01*
X52997D01*
X53997Y138428D01*
Y136429D01*
X52997Y135429D01*
X50998D01*
X49998Y136429D01*
X45500Y98429D02*
Y104427D01*
X48499D01*
X49499Y103428D01*
Y101428D01*
X48499Y100428D01*
X45500D01*
X47499D02*
X49499Y98429D01*
X54497D02*
Y104427D01*
X51498Y101428D01*
X55497D01*
X94000Y190929D02*
Y196927D01*
X96999D01*
X97999Y195928D01*
Y193928D01*
X96999Y192929D01*
X94000D01*
X95999D02*
X97999Y190929D01*
X99998Y195928D02*
X100998Y196927D01*
X102997D01*
X103997Y195928D01*
Y194928D01*
X102997Y193928D01*
X101997D01*
X102997D01*
X103997Y192929D01*
Y191929D01*
X102997Y190929D01*
X100998D01*
X99998Y191929D01*
X93500Y181929D02*
Y187927D01*
X96499D01*
X97499Y186927D01*
Y184928D01*
X96499Y183929D01*
X93500D01*
X95499D02*
X97499Y181929D01*
X103497D02*
X99498D01*
X103497Y185928D01*
Y186927D01*
X102497Y187927D01*
X100498D01*
X99498Y186927D01*
X157000Y184429D02*
Y190427D01*
X159999D01*
X160999Y189427D01*
Y187428D01*
X159999Y186428D01*
X157000D01*
X158999D02*
X160999Y184429D01*
X162998D02*
X164997D01*
X163998D01*
Y190427D01*
X162998Y189427D01*
X171000Y37429D02*
Y43427D01*
X173999D01*
X174999Y42428D01*
Y40428D01*
X173999Y39428D01*
X171000D01*
X180997Y37429D02*
X176998D01*
X180997Y41428D01*
Y42428D01*
X179997Y43427D01*
X177998D01*
X176998Y42428D01*
X123500Y155000D02*
Y160998D01*
X126499D01*
X127499Y159998D01*
Y157999D01*
X126499Y156999D01*
X123500D01*
X129498Y155000D02*
X131497D01*
X130498D01*
Y160998D01*
X129498Y159998D01*
X25000Y37498D02*
X26999D01*
X26000D01*
Y31500D01*
X25000D01*
X26999D01*
X33997D02*
X29998D01*
X33997Y35499D01*
Y36498D01*
X32997Y37498D01*
X30998D01*
X29998Y36498D01*
X39995D02*
X38996Y37498D01*
X36996D01*
X35996Y36498D01*
Y32500D01*
X36996Y31500D01*
X38996D01*
X39995Y32500D01*
X30500Y103927D02*
Y97929D01*
X33499D01*
X34499Y98929D01*
Y102927D01*
X33499Y103927D01*
X30500D01*
X36498Y102927D02*
X37498Y103927D01*
X39497D01*
X40497Y102927D01*
Y101928D01*
X39497Y100928D01*
X38497D01*
X39497D01*
X40497Y99928D01*
Y98929D01*
X39497Y97929D01*
X37498D01*
X36498Y98929D01*
X57500Y196537D02*
Y190539D01*
X60499D01*
X61499Y191539D01*
Y195538D01*
X60499Y196537D01*
X57500D01*
X67497Y190539D02*
X63498D01*
X67497Y194538D01*
Y195538D01*
X66497Y196537D01*
X64498D01*
X63498Y195538D01*
X21000Y196537D02*
Y190539D01*
X23999D01*
X24999Y191539D01*
Y195538D01*
X23999Y196537D01*
X21000D01*
X26998Y190539D02*
X28997D01*
X27998D01*
Y196537D01*
X26998Y195538D01*
X94999Y27428D02*
X93999Y28427D01*
X92000D01*
X91000Y27428D01*
Y23429D01*
X92000Y22429D01*
X93999D01*
X94999Y23429D01*
X100997Y28427D02*
X98997Y27428D01*
X96998Y25428D01*
Y23429D01*
X97998Y22429D01*
X99997D01*
X100997Y23429D01*
Y24429D01*
X99997Y25428D01*
X96998D01*
X94999Y13428D02*
X93999Y14427D01*
X92000D01*
X91000Y13428D01*
Y9429D01*
X92000Y8429D01*
X93999D01*
X94999Y9429D01*
X100997Y14427D02*
X96998D01*
Y11428D01*
X98997Y12428D01*
X99997D01*
X100997Y11428D01*
Y9429D01*
X99997Y8429D01*
X97998D01*
X96998Y9429D01*
X129499Y189427D02*
X128499Y190427D01*
X126500D01*
X125500Y189427D01*
Y185429D01*
X126500Y184429D01*
X128499D01*
X129499Y185429D01*
X134497Y184429D02*
Y190427D01*
X131498Y187428D01*
X135497D01*
X55646Y168128D02*
X54646Y169127D01*
X52647D01*
X51647Y168128D01*
Y164129D01*
X52647Y163129D01*
X54646D01*
X55646Y164129D01*
X57645Y168128D02*
X58645Y169127D01*
X60644D01*
X61644Y168128D01*
Y167128D01*
X60644Y166128D01*
X59645D01*
X60644D01*
X61644Y165129D01*
Y164129D01*
X60644Y163129D01*
X58645D01*
X57645Y164129D01*
X38780Y168447D02*
X37780Y169446D01*
X35781D01*
X34781Y168447D01*
Y164448D01*
X35781Y163448D01*
X37780D01*
X38780Y164448D01*
X44778Y163448D02*
X40779D01*
X44778Y167447D01*
Y168447D01*
X43778Y169446D01*
X41779D01*
X40779Y168447D01*
X22280D02*
X21280Y169446D01*
X19281D01*
X18281Y168447D01*
Y164448D01*
X19281Y163448D01*
X21280D01*
X22280Y164448D01*
X24279Y163448D02*
X26278D01*
X25279D01*
Y169446D01*
X24279Y168447D01*
M02*
