G04*
G04 #@! TF.GenerationSoftware,Altium Limited,Altium Designer,19.1.7 (138)*
G04*
G04 Layer_Color=8388736*
%FSLAX25Y25*%
%MOIN*%
G70*
G01*
G75*
G04:AMPARAMS|DCode=25|XSize=43.43mil|YSize=76.9mil|CornerRadius=5.95mil|HoleSize=0mil|Usage=FLASHONLY|Rotation=270.000|XOffset=0mil|YOffset=0mil|HoleType=Round|Shape=RoundedRectangle|*
%AMROUNDEDRECTD25*
21,1,0.04343,0.06500,0,0,270.0*
21,1,0.03154,0.07690,0,0,270.0*
1,1,0.01190,-0.03250,-0.01577*
1,1,0.01190,-0.03250,0.01577*
1,1,0.01190,0.03250,0.01577*
1,1,0.01190,0.03250,-0.01577*
%
%ADD25ROUNDEDRECTD25*%
G04:AMPARAMS|DCode=26|XSize=133.98mil|YSize=76.9mil|CornerRadius=6.07mil|HoleSize=0mil|Usage=FLASHONLY|Rotation=270.000|XOffset=0mil|YOffset=0mil|HoleType=Round|Shape=RoundedRectangle|*
%AMROUNDEDRECTD26*
21,1,0.13398,0.06476,0,0,270.0*
21,1,0.12185,0.07690,0,0,270.0*
1,1,0.01213,-0.03238,-0.06093*
1,1,0.01213,-0.03238,0.06093*
1,1,0.01213,0.03238,0.06093*
1,1,0.01213,0.03238,-0.06093*
%
%ADD26ROUNDEDRECTD26*%
%ADD27R,0.05328X0.03162*%
%ADD28R,0.05524X0.06312*%
%ADD29R,0.06312X0.05524*%
%ADD30R,0.05131X0.06312*%
%ADD31R,0.06706X0.06706*%
%ADD32R,0.06706X0.06706*%
%ADD33R,0.06312X0.05131*%
%ADD34R,0.16548X0.07887*%
%ADD35R,0.07887X0.16548*%
%ADD36R,0.06115X0.06115*%
%ADD37C,0.06115*%
%ADD38C,0.06800*%
%ADD39C,0.05642*%
%ADD40R,0.05642X0.05642*%
%ADD41C,0.06706*%
%ADD42R,0.06312X0.06312*%
%ADD43C,0.06312*%
%ADD44C,0.05800*%
D25*
X151303Y12874D02*
D03*
Y21929D02*
D03*
Y30984D02*
D03*
D26*
X126697Y21929D02*
D03*
D27*
X169071Y11526D02*
D03*
Y4045D02*
D03*
X177929Y7785D02*
D03*
D28*
X79957Y184429D02*
D03*
X87043D02*
D03*
X79957Y193929D02*
D03*
X87043D02*
D03*
X150543Y186929D02*
D03*
X143457D02*
D03*
D29*
X60000Y93386D02*
D03*
Y100472D02*
D03*
X60181Y119176D02*
D03*
Y112090D02*
D03*
X60000Y137472D02*
D03*
Y130386D02*
D03*
D30*
X105547Y24429D02*
D03*
X111453D02*
D03*
X114047Y187429D02*
D03*
X119953D02*
D03*
X105547Y11429D02*
D03*
X111453D02*
D03*
D31*
X35500Y192319D02*
D03*
Y178539D02*
D03*
X49500Y192319D02*
D03*
Y178539D02*
D03*
X127500Y117929D02*
D03*
X137500Y97520D02*
D03*
D32*
X8610Y100929D02*
D03*
X22390D02*
D03*
X75493Y160976D02*
D03*
D33*
X54000Y151476D02*
D03*
Y157382D02*
D03*
X37134Y151795D02*
D03*
Y157701D02*
D03*
X20634Y151795D02*
D03*
Y157701D02*
D03*
D34*
X70000Y54429D02*
D03*
Y31594D02*
D03*
D35*
X88898Y42618D02*
D03*
D36*
X32500Y13429D02*
D03*
D37*
X24626D02*
D03*
D38*
X85529Y135929D02*
D03*
X10000Y50000D02*
D03*
X106000Y35929D02*
D03*
X108000Y195429D02*
D03*
X44000Y129929D02*
D03*
X190000Y190000D02*
D03*
Y10000D02*
D03*
X10000Y190000D02*
D03*
D39*
X35256Y133929D02*
D03*
Y123929D02*
D03*
X4744D02*
D03*
D40*
Y133929D02*
D03*
D41*
X166315Y54472D02*
D03*
X186000Y68252D02*
D03*
X166315Y82032D02*
D03*
X186000Y95811D02*
D03*
X166315Y109591D02*
D03*
X186000Y123370D02*
D03*
X166315Y137150D02*
D03*
X186000Y150929D02*
D03*
X166315Y164709D02*
D03*
X127500Y147929D02*
D03*
Y137929D02*
D03*
Y127929D02*
D03*
X119783Y97520D02*
D03*
Y71929D02*
D03*
X137500D02*
D03*
X75493Y150976D02*
D03*
Y140976D02*
D03*
Y130976D02*
D03*
Y120976D02*
D03*
Y110976D02*
D03*
Y100976D02*
D03*
Y90976D02*
D03*
Y80976D02*
D03*
Y70976D02*
D03*
X105493Y160976D02*
D03*
Y150976D02*
D03*
Y140976D02*
D03*
Y130976D02*
D03*
Y120976D02*
D03*
Y110976D02*
D03*
Y100976D02*
D03*
Y90976D02*
D03*
Y80976D02*
D03*
Y70976D02*
D03*
D42*
X196000Y21779D02*
D03*
D43*
Y29653D02*
D03*
Y37527D02*
D03*
D44*
X110500Y62929D02*
D03*
X176000Y85929D02*
D03*
X143000Y118429D02*
D03*
X53500Y64929D02*
D03*
X58500Y76429D02*
D03*
X115500Y140929D02*
D03*
M02*
