G04*
G04 #@! TF.GenerationSoftware,Altium Limited,Altium Designer,19.1.7 (138)*
G04*
G04 Layer_Color=16711935*
%FSLAX25Y25*%
%MOIN*%
G70*
G01*
G75*
%ADD11C,0.00787*%
%ADD13C,0.00394*%
D11*
X147811Y177504D02*
X195055D01*
X147811Y47583D02*
Y177504D01*
Y47583D02*
X195055D01*
Y177504D01*
D13*
X83013Y165386D02*
G03*
X83013Y165386I-1969J0D01*
G01*
X52284Y886D02*
Y57972D01*
Y886D02*
X87717D01*
Y57972D01*
X52284D02*
X87717D01*
X146283Y8740D02*
Y35118D01*
X131717Y8740D02*
Y35118D01*
Y8740D02*
X146283D01*
X131717Y35118D02*
X146283D01*
X170744Y1880D02*
Y13691D01*
X176256Y1880D02*
Y13691D01*
X170744D02*
X176256D01*
X170744Y1880D02*
X176256D01*
X16752Y9492D02*
X40374D01*
X16752D02*
Y29177D01*
X40374D01*
Y9492D02*
Y29177D01*
X79268Y187185D02*
X87732D01*
X79268Y181673D02*
X87732D01*
X79268D02*
Y187185D01*
X87732Y181673D02*
Y187185D01*
X79268Y196685D02*
X87732D01*
X79268Y191173D02*
X87732D01*
X79268D02*
Y196685D01*
X87732Y191173D02*
Y196685D01*
X57244Y92697D02*
Y101161D01*
X62756Y92697D02*
Y101161D01*
X57244Y92697D02*
X62756D01*
X57244Y101161D02*
X62756D01*
X104169Y21575D02*
Y27283D01*
X112831Y21575D02*
Y27283D01*
X104169D02*
X112831D01*
X104169Y21575D02*
X112831D01*
X142768Y184173D02*
X151232D01*
X142768Y189685D02*
X151232D01*
Y184173D02*
Y189685D01*
X142768Y184173D02*
Y189685D01*
X112669Y184575D02*
Y190284D01*
X121331Y184575D02*
Y190284D01*
X112669D02*
X121331D01*
X112669Y184575D02*
X121331D01*
X6319Y137413D02*
X11319Y142413D01*
X6319Y115445D02*
Y142413D01*
Y115445D02*
X33681D01*
Y142413D01*
X6319D02*
X33681D01*
X116850Y72933D02*
Y96516D01*
Y72933D02*
X140433D01*
Y96516D01*
X116850D02*
X140433D01*
X104169Y14284D02*
X112831D01*
X104169Y8575D02*
X112831D01*
X104169D02*
Y14284D01*
X112831Y8575D02*
Y14284D01*
X185100Y17842D02*
X191000D01*
X185100Y41464D02*
X191000D01*
X185100Y17842D02*
Y41464D01*
X191000Y17842D02*
Y41464D01*
X77501Y63024D02*
Y168929D01*
X103486Y63024D02*
Y168929D01*
X77501D02*
X103486D01*
X77501Y63024D02*
X103486D01*
X57425Y119865D02*
X62937D01*
X57425Y111401D02*
X62937D01*
Y119865D01*
X57425Y111401D02*
Y119865D01*
X57244Y138161D02*
X62756D01*
X57244Y129697D02*
X62756D01*
Y138161D01*
X57244Y129697D02*
Y138161D01*
X51146Y150098D02*
Y158760D01*
X56854Y150098D02*
Y158760D01*
X51146Y150098D02*
X56854D01*
X51146Y158760D02*
X56854D01*
X34279Y150418D02*
Y159079D01*
X39988Y150418D02*
Y159079D01*
X34279Y150418D02*
X39988D01*
X34279Y159079D02*
X39988D01*
X17779Y150418D02*
Y159079D01*
X23488Y150418D02*
Y159079D01*
X17779Y150418D02*
X23488D01*
X17779Y159079D02*
X23488D01*
M02*
