G04*
G04 #@! TF.GenerationSoftware,Altium Limited,Altium Designer,19.1.7 (138)*
G04*
G04 Layer_Physical_Order=1*
G04 Layer_Color=255*
%FSLAX25Y25*%
%MOIN*%
G70*
G01*
G75*
%ADD15C,0.01000*%
%ADD16R,0.04528X0.02362*%
%ADD17R,0.04331X0.05512*%
%ADD18R,0.05512X0.04724*%
%ADD19R,0.05512X0.04331*%
%ADD20R,0.04724X0.05512*%
G04:AMPARAMS|DCode=21|XSize=125.98mil|YSize=68.9mil|CornerRadius=2.07mil|HoleSize=0mil|Usage=FLASHONLY|Rotation=90.000|XOffset=0mil|YOffset=0mil|HoleType=Round|Shape=RoundedRectangle|*
%AMROUNDEDRECTD21*
21,1,0.12598,0.06476,0,0,90.0*
21,1,0.12185,0.06890,0,0,90.0*
1,1,0.00413,0.03238,0.06093*
1,1,0.00413,0.03238,-0.06093*
1,1,0.00413,-0.03238,-0.06093*
1,1,0.00413,-0.03238,0.06093*
%
%ADD21ROUNDEDRECTD21*%
G04:AMPARAMS|DCode=22|XSize=35.43mil|YSize=68.9mil|CornerRadius=1.95mil|HoleSize=0mil|Usage=FLASHONLY|Rotation=90.000|XOffset=0mil|YOffset=0mil|HoleType=Round|Shape=RoundedRectangle|*
%AMROUNDEDRECTD22*
21,1,0.03543,0.06500,0,0,90.0*
21,1,0.03154,0.06890,0,0,90.0*
1,1,0.00390,0.03250,0.01577*
1,1,0.00390,0.03250,-0.01577*
1,1,0.00390,-0.03250,-0.01577*
1,1,0.00390,-0.03250,0.01577*
%
%ADD22ROUNDEDRECTD22*%
%ADD23R,0.05906X0.05906*%
%ADD40C,0.05906*%
%ADD41R,0.05906X0.05906*%
%ADD42C,0.06000*%
%ADD43R,0.07087X0.15748*%
%ADD44R,0.15748X0.07087*%
%ADD45R,0.05315X0.05315*%
%ADD46C,0.05315*%
%ADD47C,0.05000*%
G36*
X200229Y200D02*
X162520D01*
X162397Y662D01*
X162405Y700D01*
X162881Y1019D01*
X184281Y22419D01*
X184613Y22915D01*
X184729Y23500D01*
Y27797D01*
X184829Y28300D01*
Y28411D01*
X191427Y35009D01*
X191834Y34745D01*
X191466Y33855D01*
X191340Y32900D01*
X191466Y31945D01*
X191834Y31056D01*
X192421Y30292D01*
X193185Y29705D01*
X194074Y29337D01*
X195029Y29211D01*
X195984Y29337D01*
X196874Y29705D01*
X197638Y30292D01*
X198224Y31056D01*
X198592Y31945D01*
X198718Y32900D01*
X198592Y33855D01*
X198224Y34745D01*
X197638Y35509D01*
X196874Y36095D01*
X195984Y36463D01*
X195029Y36589D01*
X194074Y36463D01*
X193185Y36095D01*
X192920Y36502D01*
X193535Y37117D01*
X198687D01*
Y44431D01*
X193535D01*
X187558Y50407D01*
Y59636D01*
X191984Y64062D01*
X192361Y63731D01*
X192188Y63506D01*
X191834Y63045D01*
X191466Y62155D01*
X191340Y61200D01*
X191466Y60245D01*
X191834Y59355D01*
X192421Y58592D01*
X193185Y58005D01*
X194074Y57637D01*
X195029Y57511D01*
X195984Y57637D01*
X196874Y58005D01*
X197638Y58592D01*
X198224Y59355D01*
X198592Y60245D01*
X198718Y61200D01*
X198592Y62155D01*
X198224Y63045D01*
X197638Y63809D01*
X196874Y64395D01*
X195984Y64763D01*
X195029Y64889D01*
X194074Y64763D01*
X193185Y64395D01*
X192724Y64041D01*
X192498Y63868D01*
X192168Y64245D01*
X193340Y65417D01*
X198687D01*
Y72732D01*
X191372D01*
Y67774D01*
X184948Y61351D01*
X184616Y60854D01*
X184500Y60269D01*
Y49774D01*
X184616Y49189D01*
X184948Y48693D01*
X191372Y42269D01*
Y39279D01*
X182219Y30126D01*
X181887Y29630D01*
X181771Y29045D01*
Y28703D01*
X181671Y28200D01*
Y24134D01*
X161167Y3629D01*
X94445D01*
X88775Y9299D01*
X88967Y9763D01*
X89103Y10795D01*
X88967Y11827D01*
X88775Y12291D01*
X102781Y26298D01*
X103113Y26794D01*
X103229Y27379D01*
Y37466D01*
X110034Y44271D01*
X112331D01*
X112501Y43771D01*
X112297Y43614D01*
X111663Y42788D01*
X111265Y41827D01*
X111129Y40795D01*
X111265Y39763D01*
X111663Y38802D01*
X112297Y37976D01*
X113123Y37342D01*
X114084Y36944D01*
X115116Y36808D01*
X116148Y36944D01*
X117109Y37342D01*
X117935Y37976D01*
X118569Y38802D01*
X118967Y39763D01*
X119103Y40795D01*
X118967Y41827D01*
X118569Y42788D01*
X117935Y43614D01*
X117731Y43771D01*
X117901Y44271D01*
X121641D01*
X122226Y44387D01*
X122723Y44719D01*
X122824Y44820D01*
X123324Y44613D01*
Y37339D01*
X125156D01*
Y34314D01*
X125273Y33729D01*
X125604Y33233D01*
X129888Y28949D01*
X129790Y28714D01*
X129670Y27800D01*
X129790Y26886D01*
X130143Y26035D01*
X130704Y25304D01*
X131435Y24743D01*
X132286Y24390D01*
X133200Y24270D01*
X134114Y24390D01*
X134965Y24743D01*
X135696Y25304D01*
X136257Y26035D01*
X136610Y26886D01*
X136730Y27800D01*
X136610Y28714D01*
X136257Y29565D01*
X135696Y30296D01*
X134965Y30857D01*
X134114Y31210D01*
X133200Y31330D01*
X132286Y31210D01*
X132051Y31112D01*
X128215Y34948D01*
Y37339D01*
X129910D01*
X130048Y37339D01*
X130410D01*
X130548Y37339D01*
X137135D01*
Y44851D01*
X135258D01*
Y47439D01*
X137091D01*
Y49666D01*
X146324D01*
X146909Y49782D01*
X147406Y50114D01*
X176811Y79519D01*
X177142Y80015D01*
X177259Y80600D01*
Y83495D01*
X179185D01*
Y85327D01*
X188676D01*
Y81947D01*
X196582D01*
Y89853D01*
X188676D01*
Y88386D01*
X179185D01*
Y90081D01*
X179185Y90219D01*
Y90581D01*
X179185Y90719D01*
Y94276D01*
X189023D01*
X189176Y93907D01*
X189810Y93081D01*
X190636Y92447D01*
X191597Y92049D01*
X192629Y91913D01*
X193661Y92049D01*
X194623Y92447D01*
X195448Y93081D01*
X196082Y93907D01*
X196480Y94868D01*
X196616Y95900D01*
X196480Y96932D01*
X196082Y97893D01*
X195448Y98719D01*
X194623Y99353D01*
X193661Y99751D01*
X192629Y99887D01*
X191597Y99751D01*
X190636Y99353D01*
X189810Y98719D01*
X189176Y97893D01*
X188945Y97335D01*
X177291D01*
X177144Y97306D01*
X171673D01*
Y95473D01*
X155072D01*
X143219Y107325D01*
X143047Y107440D01*
Y112256D01*
X134476D01*
Y108500D01*
Y104744D01*
X138353D01*
Y77849D01*
X130961Y70458D01*
X125218D01*
Y64715D01*
X122828Y62325D01*
X118761D01*
X118569Y62788D01*
X117935Y63614D01*
X117109Y64248D01*
X116148Y64646D01*
X115116Y64782D01*
X114084Y64646D01*
X113123Y64248D01*
X112297Y63614D01*
X111663Y62788D01*
X111265Y61827D01*
X111129Y60795D01*
X111265Y59763D01*
X111663Y58802D01*
X112297Y57976D01*
X113123Y57342D01*
X114084Y56944D01*
X115116Y56808D01*
X116148Y56944D01*
X117109Y57342D01*
X117935Y57976D01*
X118569Y58802D01*
X118761Y59266D01*
X123461D01*
X124047Y59382D01*
X124543Y59714D01*
X127381Y62552D01*
X133124D01*
Y68295D01*
X140963Y76134D01*
X141295Y76631D01*
X141411Y77216D01*
Y104101D01*
X141911Y104308D01*
X153357Y92862D01*
X153853Y92530D01*
X154439Y92414D01*
X171673D01*
Y90719D01*
X171673Y90581D01*
Y90219D01*
X171673Y90081D01*
Y83495D01*
X174200D01*
Y81234D01*
X145691Y52724D01*
X137091D01*
Y54951D01*
X130505D01*
X130367Y54951D01*
X130005D01*
X129867Y54951D01*
X123280D01*
Y49602D01*
X121008Y47329D01*
X117914D01*
X117744Y47829D01*
X117935Y47976D01*
X118569Y48802D01*
X118967Y49763D01*
X119103Y50795D01*
X118967Y51827D01*
X118569Y52789D01*
X117935Y53614D01*
X117109Y54248D01*
X116148Y54646D01*
X115116Y54782D01*
X114084Y54646D01*
X113123Y54248D01*
X112297Y53614D01*
X111663Y52789D01*
X111265Y51827D01*
X111129Y50795D01*
X111265Y49763D01*
X111663Y48802D01*
X112297Y47976D01*
X112488Y47829D01*
X112318Y47329D01*
X109400D01*
X108815Y47213D01*
X108319Y46881D01*
X100619Y39181D01*
X100287Y38685D01*
X100171Y38100D01*
Y28013D01*
X86612Y14454D01*
X86148Y14646D01*
X85116Y14782D01*
X84084Y14646D01*
X83123Y14248D01*
X82297Y13614D01*
X81663Y12788D01*
X81556Y12529D01*
X64733D01*
X38355Y38907D01*
X37859Y39239D01*
X37274Y39355D01*
X9475D01*
X9283Y39817D01*
X17311Y47844D01*
X17642Y48341D01*
X17759Y48926D01*
Y55895D01*
X17642Y56480D01*
X17311Y56976D01*
X8687Y65601D01*
Y70753D01*
X1372D01*
Y63438D01*
X6524D01*
X14700Y55262D01*
Y49560D01*
X8731Y43591D01*
X8324Y43856D01*
X8692Y44745D01*
X8818Y45700D01*
X8692Y46655D01*
X8324Y47545D01*
X7738Y48309D01*
X6974Y48895D01*
X6084Y49263D01*
X5129Y49389D01*
X4174Y49263D01*
X3285Y48895D01*
X2521Y48309D01*
X1934Y47545D01*
X1566Y46655D01*
X1440Y45700D01*
X1566Y44745D01*
X1934Y43856D01*
X2521Y43091D01*
X3285Y42505D01*
X4174Y42137D01*
X5129Y42011D01*
X6084Y42137D01*
X6974Y42505D01*
X7238Y42098D01*
X6624Y41484D01*
X1472D01*
Y34168D01*
X8787D01*
Y36297D01*
X36641D01*
X63019Y9919D01*
X63515Y9587D01*
X64100Y9471D01*
X81386D01*
X81663Y8802D01*
X82297Y7976D01*
X83123Y7342D01*
X84084Y6944D01*
X85116Y6808D01*
X86148Y6944D01*
X86612Y7136D01*
X92730Y1019D01*
X93206Y700D01*
X93214Y662D01*
X93092Y200D01*
X229Y200D01*
X229Y150200D01*
X200229D01*
X200229Y200D01*
D02*
G37*
%LPC*%
G36*
X32064Y143621D02*
X29300D01*
Y141940D01*
X32064D01*
Y143621D01*
D02*
G37*
G36*
X28300D02*
X25536D01*
Y141940D01*
X28300D01*
Y143621D01*
D02*
G37*
G36*
X190500Y147487D02*
Y140500D01*
X197487D01*
X197391Y141470D01*
X196963Y142884D01*
X196266Y144187D01*
X195329Y145329D01*
X194187Y146266D01*
X192884Y146963D01*
X191470Y147391D01*
X190500Y147487D01*
D02*
G37*
G36*
X189500D02*
X188530Y147391D01*
X187116Y146963D01*
X185813Y146266D01*
X184671Y145329D01*
X183734Y144187D01*
X183037Y142884D01*
X182608Y141470D01*
X182513Y140500D01*
X189500D01*
Y147487D01*
D02*
G37*
G36*
X10500D02*
Y140500D01*
X17487D01*
X17391Y141470D01*
X16963Y142884D01*
X16266Y144187D01*
X15329Y145329D01*
X14187Y146266D01*
X12884Y146963D01*
X11470Y147391D01*
X10500Y147487D01*
D02*
G37*
G36*
X9500D02*
X8530Y147391D01*
X7116Y146963D01*
X5813Y146266D01*
X4671Y145329D01*
X3734Y144187D01*
X3037Y142884D01*
X2609Y141470D01*
X2513Y140500D01*
X9500D01*
Y147487D01*
D02*
G37*
G36*
X32064Y140940D02*
X29300D01*
Y139259D01*
X32064D01*
Y140940D01*
D02*
G37*
G36*
X28300D02*
X25536D01*
Y139259D01*
X28300D01*
Y140940D01*
D02*
G37*
G36*
X73185Y140271D02*
X69929D01*
Y137606D01*
X73185D01*
Y140271D01*
D02*
G37*
G36*
X68929D02*
X65673D01*
Y137606D01*
X68929D01*
Y140271D01*
D02*
G37*
G36*
X56529Y144330D02*
X55615Y144210D01*
X54764Y143857D01*
X54033Y143296D01*
X53472Y142565D01*
X53374Y142329D01*
X41841D01*
X41256Y142213D01*
X40760Y141881D01*
X38759Y139881D01*
X34394D01*
Y135519D01*
X40922D01*
Y137718D01*
X42474Y139271D01*
X53374D01*
X53472Y139035D01*
X54033Y138304D01*
X54764Y137743D01*
X55615Y137390D01*
X56529Y137270D01*
X57443Y137390D01*
X58294Y137743D01*
X59025Y138304D01*
X59586Y139035D01*
X59939Y139886D01*
X60059Y140800D01*
X59939Y141714D01*
X59586Y142565D01*
X59025Y143296D01*
X58294Y143857D01*
X57443Y144210D01*
X56529Y144330D01*
D02*
G37*
G36*
X88776Y137150D02*
X86026D01*
Y134855D01*
X89994D01*
Y135932D01*
X89902Y136398D01*
X89637Y136793D01*
X89242Y137057D01*
X88776Y137150D01*
D02*
G37*
G36*
X85026D02*
X82276D01*
X81810Y137057D01*
X81415Y136793D01*
X81150Y136398D01*
X81058Y135932D01*
Y134855D01*
X85026D01*
Y137150D01*
D02*
G37*
G36*
X177182Y137653D02*
X173729D01*
Y134200D01*
X177182D01*
Y137653D01*
D02*
G37*
G36*
X172729D02*
X169276D01*
Y134200D01*
X172729D01*
Y137653D01*
D02*
G37*
G36*
X159582Y137453D02*
X156129D01*
Y134000D01*
X159582D01*
Y137453D01*
D02*
G37*
G36*
X155129D02*
X151676D01*
Y134000D01*
X155129D01*
Y137453D01*
D02*
G37*
G36*
X197487Y139500D02*
X190500D01*
Y132513D01*
X191470Y132608D01*
X192884Y133037D01*
X194187Y133734D01*
X195329Y134671D01*
X196266Y135813D01*
X196963Y137116D01*
X197391Y138530D01*
X197487Y139500D01*
D02*
G37*
G36*
X189500D02*
X182513D01*
X182608Y138530D01*
X183037Y137116D01*
X183734Y135813D01*
X184671Y134671D01*
X185813Y133734D01*
X187116Y133037D01*
X188530Y132608D01*
X189500Y132513D01*
Y139500D01*
D02*
G37*
G36*
X17487D02*
X10500D01*
Y132513D01*
X11470Y132608D01*
X12884Y133037D01*
X14187Y133734D01*
X15329Y134671D01*
X16266Y135813D01*
X16963Y137116D01*
X17391Y138530D01*
X17487Y139500D01*
D02*
G37*
G36*
X9500D02*
X2513D01*
X2609Y138530D01*
X3037Y137116D01*
X3734Y135813D01*
X4671Y134671D01*
X5813Y133734D01*
X7116Y133037D01*
X8530Y132608D01*
X9500Y132513D01*
Y139500D01*
D02*
G37*
G36*
X32064Y136141D02*
X25536D01*
Y131779D01*
X32064D01*
Y136141D01*
D02*
G37*
G36*
X89994Y133855D02*
X86026D01*
Y131560D01*
X88776D01*
X89242Y131653D01*
X89637Y131917D01*
X89902Y132312D01*
X89994Y132778D01*
Y133855D01*
D02*
G37*
G36*
X85026D02*
X81058D01*
Y132778D01*
X81150Y132312D01*
X81415Y131917D01*
X81810Y131653D01*
X82276Y131560D01*
X85026D01*
Y133855D01*
D02*
G37*
G36*
X177182Y133200D02*
X173729D01*
Y129747D01*
X177182D01*
Y133200D01*
D02*
G37*
G36*
X172729D02*
X169276D01*
Y129747D01*
X172729D01*
Y133200D01*
D02*
G37*
G36*
X159582Y133000D02*
X156129D01*
Y129547D01*
X159582D01*
Y133000D01*
D02*
G37*
G36*
X155129D02*
X151676D01*
Y129547D01*
X155129D01*
Y133000D01*
D02*
G37*
G36*
X135910Y145656D02*
X135548D01*
X135410Y145656D01*
X128824D01*
Y143329D01*
X117029D01*
X116444Y143213D01*
X115948Y142881D01*
X109051Y135985D01*
X108719Y135488D01*
X108603Y134903D01*
Y132623D01*
X106894D01*
X106423Y132529D01*
X106024Y132263D01*
X105757Y131863D01*
X105664Y131393D01*
Y126829D01*
X89994D01*
Y126877D01*
X89902Y127343D01*
X89637Y127738D01*
X89242Y128002D01*
X88776Y128095D01*
X82276D01*
X81810Y128002D01*
X81415Y127738D01*
X81150Y127343D01*
X81058Y126877D01*
Y126829D01*
X76553D01*
X73185Y130198D01*
Y133940D01*
Y136606D01*
X69429D01*
X65673D01*
Y133940D01*
Y132729D01*
X57729D01*
X57144Y132613D01*
X56648Y132281D01*
X40648Y116281D01*
X40316Y115785D01*
X40200Y115200D01*
Y103000D01*
X40316Y102415D01*
X40648Y101919D01*
X46848Y95719D01*
X47344Y95387D01*
X47929Y95271D01*
X52296D01*
X61787Y85779D01*
X62127Y85552D01*
X62132Y85420D01*
X62006Y85032D01*
X61559Y84943D01*
X61063Y84611D01*
X60448Y83996D01*
X60116Y83499D01*
X60000Y82914D01*
Y68895D01*
X60116Y68310D01*
X60448Y67814D01*
X65055Y63207D01*
X65073Y63113D01*
Y61459D01*
X63959D01*
X63374Y61343D01*
X62877Y61011D01*
X59048Y57181D01*
X58716Y56685D01*
X58600Y56100D01*
Y47395D01*
X58716Y46810D01*
X59048Y46314D01*
X65355Y40007D01*
X65373Y39913D01*
Y35230D01*
Y32990D01*
X72885D01*
Y35230D01*
Y41560D01*
X68070D01*
X67955Y41732D01*
X61659Y48029D01*
Y55467D01*
X64573Y58381D01*
X65073Y58354D01*
Y56190D01*
X72585D01*
Y58430D01*
Y64760D01*
X67770D01*
X67655Y64932D01*
X63059Y69529D01*
Y82000D01*
X64926D01*
Y79790D01*
X72438D01*
Y82030D01*
Y85954D01*
X83326Y96842D01*
X89069D01*
Y104748D01*
X81163D01*
Y99005D01*
X70548Y88390D01*
X70347D01*
X70200Y88360D01*
X67164D01*
X67017Y88390D01*
X63502D01*
X54011Y97881D01*
X53514Y98213D01*
X52929Y98329D01*
X48563D01*
X43259Y103633D01*
Y114567D01*
X58363Y129671D01*
X65673D01*
Y128035D01*
X71022D01*
X73439Y125618D01*
X73232Y125118D01*
X73090Y125118D01*
X65973D01*
Y121817D01*
X64380D01*
X63794Y121700D01*
X63298Y121369D01*
X59733Y117803D01*
X57272D01*
X56687Y117687D01*
X56191Y117356D01*
X55963Y117128D01*
X49886D01*
Y99379D01*
X58972D01*
Y99997D01*
X60465D01*
X60519Y99586D01*
X60872Y98735D01*
X61433Y98004D01*
X62164Y97443D01*
X63015Y97090D01*
X63929Y96970D01*
X64843Y97090D01*
X65694Y97443D01*
X66425Y98004D01*
X66986Y98735D01*
X67339Y99586D01*
X67459Y100500D01*
X67339Y101414D01*
X66986Y102265D01*
X66425Y102996D01*
X65694Y103557D01*
X64843Y103910D01*
X63929Y104030D01*
X63015Y103910D01*
X62164Y103557D01*
X61510Y103055D01*
X58972D01*
Y114745D01*
X60366D01*
X60951Y114861D01*
X61448Y115193D01*
X65013Y118758D01*
X65973D01*
Y116547D01*
X73485D01*
Y118787D01*
Y120423D01*
X77511D01*
X81058Y116877D01*
Y114668D01*
X81150Y114202D01*
X81415Y113807D01*
X81810Y113543D01*
X82276Y113450D01*
X88776D01*
X89242Y113543D01*
X89637Y113807D01*
X89902Y114202D01*
X89994Y114668D01*
Y114716D01*
X101251D01*
X104348Y111619D01*
X104844Y111287D01*
X105429Y111171D01*
X116086D01*
X116671Y111287D01*
X117167Y111619D01*
X131193Y125644D01*
X136010D01*
X136148Y125644D01*
X136510D01*
X136648Y125644D01*
X138343D01*
Y121757D01*
X138460Y121171D01*
X138791Y120675D01*
X149248Y110219D01*
X149744Y109887D01*
X150329Y109771D01*
X164609D01*
X165194Y109887D01*
X165690Y110219D01*
X171439Y115968D01*
X177182D01*
Y123873D01*
X169276D01*
Y118131D01*
X163975Y112829D01*
X150963D01*
X141402Y122390D01*
Y125644D01*
X143235D01*
Y132013D01*
X143697Y132205D01*
X151647Y124254D01*
Y122173D01*
X151676Y122025D01*
Y115768D01*
X159582D01*
Y123673D01*
X154706D01*
Y124888D01*
X154589Y125473D01*
X154258Y125969D01*
X142664Y137563D01*
Y140038D01*
X142635Y140186D01*
Y145656D01*
X136048D01*
X135910Y145656D01*
D02*
G37*
G36*
X193129Y119821D02*
Y116400D01*
X196550D01*
X196480Y116932D01*
X196082Y117893D01*
X195448Y118719D01*
X194623Y119353D01*
X193661Y119751D01*
X193129Y119821D01*
D02*
G37*
G36*
X192129D02*
X191597Y119751D01*
X190636Y119353D01*
X189810Y118719D01*
X189176Y117893D01*
X188778Y116932D01*
X188708Y116400D01*
X192129D01*
Y119821D01*
D02*
G37*
G36*
X73485Y115547D02*
X70229D01*
Y112882D01*
X73485D01*
Y115547D01*
D02*
G37*
G36*
X69229D02*
X65973D01*
Y112882D01*
X69229D01*
Y115547D01*
D02*
G37*
G36*
X192129Y115400D02*
X188708D01*
X188778Y114868D01*
X189176Y113907D01*
X189810Y113081D01*
X190636Y112447D01*
X191597Y112049D01*
X192129Y111979D01*
Y115400D01*
D02*
G37*
G36*
X196550D02*
X193129D01*
Y111979D01*
X193661Y112049D01*
X194623Y112447D01*
X195448Y113081D01*
X196082Y113907D01*
X196480Y114868D01*
X196550Y115400D01*
D02*
G37*
G36*
X133476Y112256D02*
X130811D01*
Y109000D01*
X133476D01*
Y112256D01*
D02*
G37*
G36*
X36138Y117128D02*
X32094D01*
Y108754D01*
X36138D01*
Y117128D01*
D02*
G37*
G36*
X31095D02*
X27051D01*
Y108754D01*
X31095D01*
Y117128D01*
D02*
G37*
G36*
X133476Y108000D02*
X130811D01*
Y104744D01*
X133476D01*
Y108000D01*
D02*
G37*
G36*
X192629Y109887D02*
X191597Y109751D01*
X190636Y109353D01*
X189810Y108719D01*
X189176Y107893D01*
X188778Y106932D01*
X188642Y105900D01*
X188778Y104868D01*
X189176Y103907D01*
X189810Y103081D01*
X190636Y102447D01*
X191597Y102049D01*
X192629Y101913D01*
X193661Y102049D01*
X194623Y102447D01*
X195448Y103081D01*
X196082Y103907D01*
X196480Y104868D01*
X196616Y105900D01*
X196480Y106932D01*
X196082Y107893D01*
X195448Y108719D01*
X194623Y109353D01*
X193661Y109751D01*
X192629Y109887D01*
D02*
G37*
G36*
X115616Y104716D02*
Y101295D01*
X119037D01*
X118967Y101827D01*
X118569Y102788D01*
X117935Y103614D01*
X117109Y104248D01*
X116148Y104646D01*
X115616Y104716D01*
D02*
G37*
G36*
X114616D02*
X114084Y104646D01*
X113123Y104248D01*
X112297Y103614D01*
X111663Y102788D01*
X111265Y101827D01*
X111195Y101295D01*
X114616D01*
Y104716D01*
D02*
G37*
G36*
X36138Y107754D02*
X32094D01*
Y99379D01*
X36138D01*
Y107754D01*
D02*
G37*
G36*
X31095D02*
X27051D01*
Y99379D01*
X31095D01*
Y107754D01*
D02*
G37*
G36*
X119037Y100295D02*
X115616D01*
Y96874D01*
X116148Y96944D01*
X117109Y97342D01*
X117935Y97976D01*
X118569Y98802D01*
X118967Y99763D01*
X119037Y100295D01*
D02*
G37*
G36*
X114616D02*
X111195D01*
X111265Y99763D01*
X111663Y98802D01*
X112297Y97976D01*
X113123Y97342D01*
X114084Y96944D01*
X114616Y96874D01*
Y100295D01*
D02*
G37*
G36*
X147387Y96016D02*
Y92595D01*
X150808D01*
X150738Y93127D01*
X150340Y94089D01*
X149706Y94914D01*
X148881Y95548D01*
X147919Y95946D01*
X147387Y96016D01*
D02*
G37*
G36*
X146387D02*
X145855Y95946D01*
X144894Y95548D01*
X144068Y94914D01*
X143435Y94089D01*
X143036Y93127D01*
X142966Y92595D01*
X146387D01*
Y96016D01*
D02*
G37*
G36*
X51492Y93899D02*
X43118D01*
Y89856D01*
X51492D01*
Y93899D01*
D02*
G37*
G36*
X42118D02*
X33744D01*
Y89856D01*
X42118D01*
Y93899D01*
D02*
G37*
G36*
X150808Y91595D02*
X147387D01*
Y88174D01*
X147919Y88244D01*
X148881Y88643D01*
X149706Y89276D01*
X150340Y90102D01*
X150738Y91063D01*
X150808Y91595D01*
D02*
G37*
G36*
X146387D02*
X142966D01*
X143036Y91063D01*
X143435Y90102D01*
X144068Y89276D01*
X144894Y88643D01*
X145855Y88244D01*
X146387Y88174D01*
Y91595D01*
D02*
G37*
G36*
X129171Y96082D02*
X128139Y95946D01*
X127177Y95548D01*
X126352Y94914D01*
X125718Y94089D01*
X125320Y93127D01*
X125184Y92095D01*
X125320Y91063D01*
X125718Y90102D01*
X126352Y89276D01*
X127177Y88643D01*
X128139Y88244D01*
X129171Y88108D01*
X130203Y88244D01*
X131164Y88643D01*
X131990Y89276D01*
X132624Y90102D01*
X133022Y91063D01*
X133158Y92095D01*
X133022Y93127D01*
X132624Y94089D01*
X131990Y94914D01*
X131164Y95548D01*
X130203Y95946D01*
X129171Y96082D01*
D02*
G37*
G36*
X115116Y94782D02*
X114084Y94646D01*
X113123Y94248D01*
X112297Y93614D01*
X111663Y92788D01*
X111265Y91827D01*
X111129Y90795D01*
X111265Y89763D01*
X111663Y88802D01*
X112297Y87976D01*
X113123Y87342D01*
X114084Y86944D01*
X115116Y86808D01*
X116148Y86944D01*
X117109Y87342D01*
X117935Y87976D01*
X118569Y88802D01*
X118967Y89763D01*
X119103Y90795D01*
X118967Y91827D01*
X118569Y92788D01*
X117935Y93614D01*
X117109Y94248D01*
X116148Y94646D01*
X115116Y94782D01*
D02*
G37*
G36*
X85116D02*
X84084Y94646D01*
X83123Y94248D01*
X82297Y93614D01*
X81663Y92788D01*
X81265Y91827D01*
X81129Y90795D01*
X81265Y89763D01*
X81663Y88802D01*
X82297Y87976D01*
X83123Y87342D01*
X84084Y86944D01*
X85116Y86808D01*
X86148Y86944D01*
X87109Y87342D01*
X87935Y87976D01*
X88569Y88802D01*
X88967Y89763D01*
X89103Y90795D01*
X88967Y91827D01*
X88569Y92788D01*
X87935Y93614D01*
X87109Y94248D01*
X86148Y94646D01*
X85116Y94782D01*
D02*
G37*
G36*
X51492Y88856D02*
X43118D01*
Y84813D01*
X51492D01*
Y88856D01*
D02*
G37*
G36*
X42118D02*
X33744D01*
Y84813D01*
X42118D01*
Y88856D01*
D02*
G37*
G36*
X115116Y84782D02*
X114084Y84646D01*
X113123Y84248D01*
X112297Y83614D01*
X111663Y82788D01*
X111265Y81827D01*
X111129Y80795D01*
X111265Y79763D01*
X111663Y78802D01*
X112297Y77976D01*
X113123Y77342D01*
X114084Y76944D01*
X115116Y76808D01*
X116148Y76944D01*
X117109Y77342D01*
X117935Y77976D01*
X118569Y78802D01*
X118967Y79763D01*
X119103Y80795D01*
X118967Y81827D01*
X118569Y82788D01*
X117935Y83614D01*
X117109Y84248D01*
X116148Y84646D01*
X115116Y84782D01*
D02*
G37*
G36*
X85116D02*
X84084Y84646D01*
X83123Y84248D01*
X82297Y83614D01*
X81663Y82788D01*
X81265Y81827D01*
X81129Y80795D01*
X81265Y79763D01*
X81663Y78802D01*
X82297Y77976D01*
X83123Y77342D01*
X84084Y76944D01*
X85116Y76808D01*
X86148Y76944D01*
X87109Y77342D01*
X87935Y77976D01*
X88569Y78802D01*
X88967Y79763D01*
X89103Y80795D01*
X88967Y81827D01*
X88569Y82788D01*
X87935Y83614D01*
X87109Y84248D01*
X86148Y84646D01*
X85116Y84782D01*
D02*
G37*
G36*
X72438Y78790D02*
X69182D01*
Y76124D01*
X72438D01*
Y78790D01*
D02*
G37*
G36*
X68182D02*
X64926D01*
Y76124D01*
X68182D01*
Y78790D01*
D02*
G37*
G36*
X5029Y78658D02*
X4074Y78532D01*
X3185Y78164D01*
X2421Y77578D01*
X1834Y76814D01*
X1466Y75924D01*
X1340Y74969D01*
X1466Y74014D01*
X1834Y73125D01*
X2421Y72361D01*
X3185Y71774D01*
X4074Y71406D01*
X5029Y71280D01*
X5984Y71406D01*
X6874Y71774D01*
X7638Y72361D01*
X8224Y73125D01*
X8592Y74014D01*
X8718Y74969D01*
X8592Y75924D01*
X8224Y76814D01*
X7638Y77578D01*
X6874Y78164D01*
X5984Y78532D01*
X5029Y78658D01*
D02*
G37*
G36*
X115116Y74782D02*
X114084Y74646D01*
X113123Y74248D01*
X112297Y73614D01*
X111663Y72789D01*
X111265Y71827D01*
X111129Y70795D01*
X111265Y69763D01*
X111663Y68802D01*
X112297Y67976D01*
X113123Y67342D01*
X114084Y66944D01*
X115116Y66808D01*
X116148Y66944D01*
X117109Y67342D01*
X117935Y67976D01*
X118569Y68802D01*
X118967Y69763D01*
X119103Y70795D01*
X118967Y71827D01*
X118569Y72789D01*
X117935Y73614D01*
X117109Y74248D01*
X116148Y74646D01*
X115116Y74782D01*
D02*
G37*
G36*
X85116D02*
X84084Y74646D01*
X83123Y74248D01*
X82297Y73614D01*
X81663Y72789D01*
X81265Y71827D01*
X81129Y70795D01*
X81265Y69763D01*
X81663Y68802D01*
X82297Y67976D01*
X83123Y67342D01*
X84084Y66944D01*
X85116Y66808D01*
X86148Y66944D01*
X87109Y67342D01*
X87935Y67976D01*
X88569Y68802D01*
X88967Y69763D01*
X89103Y70795D01*
X88967Y71827D01*
X88569Y72789D01*
X87935Y73614D01*
X87109Y74248D01*
X86148Y74646D01*
X85116Y74782D01*
D02*
G37*
G36*
X146887Y70492D02*
X145855Y70356D01*
X144894Y69957D01*
X144068Y69324D01*
X143435Y68498D01*
X143036Y67537D01*
X142901Y66505D01*
X143036Y65473D01*
X143435Y64511D01*
X144068Y63686D01*
X144894Y63052D01*
X145855Y62654D01*
X146887Y62518D01*
X147919Y62654D01*
X148881Y63052D01*
X149706Y63686D01*
X150340Y64511D01*
X150738Y65473D01*
X150874Y66505D01*
X150738Y67537D01*
X150340Y68498D01*
X149706Y69324D01*
X148881Y69957D01*
X147919Y70356D01*
X146887Y70492D01*
D02*
G37*
G36*
X85116Y64782D02*
X84084Y64646D01*
X83123Y64248D01*
X82297Y63614D01*
X81663Y62788D01*
X81265Y61827D01*
X81129Y60795D01*
X81265Y59763D01*
X81663Y58802D01*
X82297Y57976D01*
X83123Y57342D01*
X84084Y56944D01*
X85116Y56808D01*
X86148Y56944D01*
X87109Y57342D01*
X87935Y57976D01*
X88569Y58802D01*
X88967Y59763D01*
X89103Y60795D01*
X88967Y61827D01*
X88569Y62788D01*
X87935Y63614D01*
X87109Y64248D01*
X86148Y64646D01*
X85116Y64782D01*
D02*
G37*
G36*
X72585Y55190D02*
X69329D01*
Y52524D01*
X72585D01*
Y55190D01*
D02*
G37*
G36*
X68329D02*
X65073D01*
Y52524D01*
X68329D01*
Y55190D01*
D02*
G37*
G36*
X85116Y54782D02*
X84084Y54646D01*
X83123Y54248D01*
X82297Y53614D01*
X81663Y52789D01*
X81265Y51827D01*
X81129Y50795D01*
X81265Y49763D01*
X81663Y48802D01*
X82297Y47976D01*
X83123Y47342D01*
X84084Y46944D01*
X85116Y46808D01*
X86148Y46944D01*
X87109Y47342D01*
X87935Y47976D01*
X88569Y48802D01*
X88967Y49763D01*
X89103Y50795D01*
X88967Y51827D01*
X88569Y52789D01*
X87935Y53614D01*
X87109Y54248D01*
X86148Y54646D01*
X85116Y54782D01*
D02*
G37*
G36*
Y44782D02*
X84084Y44646D01*
X83123Y44248D01*
X82297Y43614D01*
X81663Y42788D01*
X81265Y41827D01*
X81129Y40795D01*
X81265Y39763D01*
X81663Y38802D01*
X82297Y37976D01*
X83123Y37342D01*
X84084Y36944D01*
X85116Y36808D01*
X86148Y36944D01*
X87109Y37342D01*
X87935Y37976D01*
X88569Y38802D01*
X88967Y39763D01*
X89103Y40795D01*
X88967Y41827D01*
X88569Y42788D01*
X87935Y43614D01*
X87109Y44248D01*
X86148Y44646D01*
X85116Y44782D01*
D02*
G37*
G36*
X72885Y31990D02*
X69629D01*
Y29324D01*
X72885D01*
Y31990D01*
D02*
G37*
G36*
X68629D02*
X65373D01*
Y29324D01*
X68629D01*
Y31990D01*
D02*
G37*
G36*
X115116Y34782D02*
X114084Y34646D01*
X113123Y34248D01*
X112297Y33614D01*
X111663Y32789D01*
X111265Y31827D01*
X111129Y30795D01*
X111265Y29763D01*
X111663Y28802D01*
X112297Y27976D01*
X113123Y27342D01*
X114084Y26944D01*
X115116Y26808D01*
X116148Y26944D01*
X117109Y27342D01*
X117935Y27976D01*
X118569Y28802D01*
X118967Y29763D01*
X119103Y30795D01*
X118967Y31827D01*
X118569Y32789D01*
X117935Y33614D01*
X117109Y34248D01*
X116148Y34646D01*
X115116Y34782D01*
D02*
G37*
G36*
X85116D02*
X84084Y34646D01*
X83123Y34248D01*
X82297Y33614D01*
X81663Y32789D01*
X81265Y31827D01*
X81129Y30795D01*
X81265Y29763D01*
X81663Y28802D01*
X82297Y27976D01*
X83123Y27342D01*
X84084Y26944D01*
X85116Y26808D01*
X86148Y26944D01*
X87109Y27342D01*
X87935Y27976D01*
X88569Y28802D01*
X88967Y29763D01*
X89103Y30795D01*
X88967Y31827D01*
X88569Y32789D01*
X87935Y33614D01*
X87109Y34248D01*
X86148Y34646D01*
X85116Y34782D01*
D02*
G37*
G36*
X115116Y24782D02*
X114084Y24646D01*
X113123Y24248D01*
X112297Y23614D01*
X111663Y22788D01*
X111265Y21827D01*
X111129Y20795D01*
X111265Y19763D01*
X111663Y18802D01*
X112297Y17976D01*
X113123Y17342D01*
X114084Y16944D01*
X115116Y16808D01*
X116148Y16944D01*
X117109Y17342D01*
X117935Y17976D01*
X118569Y18802D01*
X118967Y19763D01*
X119103Y20795D01*
X118967Y21827D01*
X118569Y22788D01*
X117935Y23614D01*
X117109Y24248D01*
X116148Y24646D01*
X115116Y24782D01*
D02*
G37*
G36*
X85116D02*
X84084Y24646D01*
X83123Y24248D01*
X82297Y23614D01*
X81663Y22788D01*
X81265Y21827D01*
X81129Y20795D01*
X81265Y19763D01*
X81663Y18802D01*
X82297Y17976D01*
X83123Y17342D01*
X84084Y16944D01*
X85116Y16808D01*
X86148Y16944D01*
X87109Y17342D01*
X87935Y17976D01*
X88569Y18802D01*
X88967Y19763D01*
X89103Y20795D01*
X88967Y21827D01*
X88569Y22788D01*
X87935Y23614D01*
X87109Y24248D01*
X86148Y24646D01*
X85116Y24782D01*
D02*
G37*
G36*
X190500Y17487D02*
Y10500D01*
X197487D01*
X197391Y11470D01*
X196963Y12884D01*
X196266Y14187D01*
X195329Y15329D01*
X194187Y16266D01*
X192884Y16963D01*
X191470Y17391D01*
X190500Y17487D01*
D02*
G37*
G36*
X189500D02*
X188530Y17391D01*
X187116Y16963D01*
X185813Y16266D01*
X184671Y15329D01*
X183734Y14187D01*
X183037Y12884D01*
X182608Y11470D01*
X182513Y10500D01*
X189500D01*
Y17487D01*
D02*
G37*
G36*
X10500D02*
Y10500D01*
X17487D01*
X17391Y11470D01*
X16963Y12884D01*
X16266Y14187D01*
X15329Y15329D01*
X14187Y16266D01*
X12884Y16963D01*
X11470Y17391D01*
X10500Y17487D01*
D02*
G37*
G36*
X9500D02*
X8530Y17391D01*
X7116Y16963D01*
X5813Y16266D01*
X4671Y15329D01*
X3734Y14187D01*
X3037Y12884D01*
X2609Y11470D01*
X2513Y10500D01*
X9500D01*
Y17487D01*
D02*
G37*
G36*
X115116Y14782D02*
X114084Y14646D01*
X113123Y14248D01*
X112297Y13614D01*
X111663Y12788D01*
X111265Y11827D01*
X111129Y10795D01*
X111265Y9763D01*
X111663Y8802D01*
X112297Y7976D01*
X113123Y7342D01*
X114084Y6944D01*
X115116Y6808D01*
X116148Y6944D01*
X117109Y7342D01*
X117935Y7976D01*
X118569Y8802D01*
X118967Y9763D01*
X119103Y10795D01*
X118967Y11827D01*
X118569Y12788D01*
X117935Y13614D01*
X117109Y14248D01*
X116148Y14646D01*
X115116Y14782D01*
D02*
G37*
G36*
X197487Y9500D02*
X190500D01*
Y2513D01*
X191470Y2609D01*
X192884Y3037D01*
X194187Y3734D01*
X195329Y4671D01*
X196266Y5813D01*
X196963Y7116D01*
X197391Y8530D01*
X197487Y9500D01*
D02*
G37*
G36*
X189500D02*
X182513D01*
X182608Y8530D01*
X183037Y7116D01*
X183734Y5813D01*
X184671Y4671D01*
X185813Y3734D01*
X187116Y3037D01*
X188530Y2609D01*
X189500Y2513D01*
Y9500D01*
D02*
G37*
G36*
X17487D02*
X10500D01*
Y2513D01*
X11470Y2609D01*
X12884Y3037D01*
X14187Y3734D01*
X15329Y4671D01*
X16266Y5813D01*
X16963Y7116D01*
X17391Y8530D01*
X17487Y9500D01*
D02*
G37*
G36*
X9500D02*
X2513D01*
X2609Y8530D01*
X3037Y7116D01*
X3734Y5813D01*
X4671Y4671D01*
X5813Y3734D01*
X7116Y3037D01*
X8530Y2609D01*
X9500Y2513D01*
Y9500D01*
D02*
G37*
%LPD*%
G36*
X128824Y138144D02*
X135410D01*
X135548Y138144D01*
X135910D01*
X136048Y138144D01*
X139605D01*
Y136930D01*
X139722Y136344D01*
X140053Y135848D01*
X142283Y133618D01*
X142092Y133156D01*
X136648D01*
X136510Y133156D01*
X136148D01*
X136010Y133156D01*
X129424D01*
Y128201D01*
X115452Y114229D01*
X106063D01*
X102966Y117326D01*
X102470Y117658D01*
X101884Y117774D01*
X89994D01*
Y117822D01*
X89902Y118288D01*
X89637Y118683D01*
X89242Y118947D01*
X88776Y119040D01*
X83221D01*
X79226Y123034D01*
X78873Y123271D01*
X79024Y123771D01*
X81058D01*
Y123723D01*
X81150Y123257D01*
X81415Y122862D01*
X81810Y122598D01*
X82276Y122505D01*
X88776D01*
X89242Y122598D01*
X89637Y122862D01*
X89902Y123257D01*
X89994Y123723D01*
Y123771D01*
X105664D01*
Y119208D01*
X105757Y118737D01*
X106024Y118338D01*
X106423Y118071D01*
X106894Y117977D01*
X113371D01*
X113841Y118071D01*
X114240Y118338D01*
X114507Y118737D01*
X114601Y119208D01*
Y131393D01*
X114507Y131863D01*
X114240Y132263D01*
X113841Y132529D01*
X113371Y132623D01*
X111662D01*
Y134270D01*
X117663Y140271D01*
X128824D01*
Y138144D01*
D02*
G37*
D15*
X126686Y34314D02*
X133200Y27800D01*
X126686Y34314D02*
Y41095D01*
X183300Y28300D02*
Y29045D01*
X195029Y40774D01*
X183200Y28200D02*
X183300Y28300D01*
X183200Y23500D02*
Y28200D01*
X161800Y2100D02*
X183200Y23500D01*
X93811Y2100D02*
X161800D01*
X85116Y10795D02*
X93811Y2100D01*
X121641Y45800D02*
X126643Y50801D01*
Y51195D01*
X109400Y45800D02*
X121641D01*
X101700Y38100D02*
X109400Y45800D01*
X101700Y27379D02*
Y38100D01*
X85116Y10795D02*
X101700Y27379D01*
X64100Y11000D02*
X84911D01*
X85116Y10795D01*
X37274Y37826D02*
X64100Y11000D01*
X5129Y37826D02*
X37274D01*
X68534Y61300D02*
X68829Y61595D01*
X54229Y108254D02*
Y113231D01*
X57472Y101526D02*
X61821D01*
X54429Y104569D02*
X57472Y101526D01*
X54429Y104569D02*
Y108254D01*
X54229Y113231D02*
X57272Y116274D01*
X186029Y49774D02*
Y60269D01*
Y49774D02*
X195029Y40774D01*
X186029Y60269D02*
X194829Y69069D01*
X5129Y37826D02*
X16229Y48926D01*
X38741Y137700D02*
X41841Y140800D01*
X37658Y137700D02*
X38741D01*
X41841Y140800D02*
X56529D01*
X62847Y100500D02*
X63929D01*
X61821Y101526D02*
X62847Y100500D01*
X62869Y86860D02*
X67017D01*
X52929Y96800D02*
X62869Y86860D01*
X47929Y96800D02*
X52929D01*
X41729Y103000D02*
X47929Y96800D01*
X67017Y86860D02*
X68682Y85195D01*
X41729Y103000D02*
Y115200D01*
X57729Y131200D01*
X69429D01*
X139882Y107909D02*
Y108500D01*
Y77216D02*
Y107909D01*
X129171Y66505D02*
X139882Y77216D01*
X66873Y40060D02*
X68539Y38395D01*
X66873Y40060D02*
Y40651D01*
X67164Y59930D02*
X68534Y61300D01*
X16229Y48926D02*
Y55895D01*
X5029Y67095D02*
X16229Y55895D01*
X192535Y95806D02*
X192629Y95900D01*
X177291Y95806D02*
X192535D01*
X175429Y93943D02*
X177291Y95806D01*
X191672Y86857D02*
X192629Y85900D01*
X175429Y86857D02*
X191672D01*
X175729Y80600D02*
Y86557D01*
X175429Y86857D02*
X175729Y86557D01*
X146324Y51195D02*
X175729Y80600D01*
X133729Y51195D02*
X146324D01*
X133729Y41138D02*
X133772Y41095D01*
X133729Y41138D02*
Y51195D01*
X68682Y85195D02*
X70347Y86860D01*
X71181D01*
X85116Y100795D01*
X61529Y82914D02*
X62145Y83530D01*
X67017D01*
X68682Y85195D01*
X61529Y68895D02*
Y82914D01*
Y68895D02*
X66573Y63851D01*
Y63260D02*
Y63851D01*
Y63260D02*
X68239Y61595D01*
X68829D01*
X60129Y47395D02*
Y56100D01*
Y47395D02*
X66873Y40651D01*
X68539Y38395D02*
X69129D01*
X60129Y56100D02*
X63959Y59930D01*
X67164D01*
X126386Y40795D02*
X126686Y41095D01*
X126242Y50795D02*
X126643Y51195D01*
X115116Y60795D02*
X123461D01*
X129171Y66505D01*
X142138Y106244D02*
X154439Y93943D01*
X141547Y106244D02*
X142138D01*
X139882Y107909D02*
X141547Y106244D01*
X154439Y93943D02*
X175429D01*
X153176Y122173D02*
X155629Y119720D01*
X153176Y122173D02*
Y124888D01*
X141135Y136930D02*
X153176Y124888D01*
X141135Y136930D02*
Y140038D01*
X139272Y141900D02*
X141135Y140038D01*
X150329Y111300D02*
X164609D01*
X173229Y119921D01*
X139872Y121757D02*
X150329Y111300D01*
X139872Y121757D02*
Y129400D01*
X117029Y141800D02*
X132086D01*
X132186Y141900D01*
X110132Y134903D02*
X117029Y141800D01*
X110132Y125300D02*
Y134903D01*
X105429Y112700D02*
X116086D01*
X130530Y127144D01*
X130924D01*
X132786Y129006D01*
Y129400D01*
X101884Y116245D02*
X105429Y112700D01*
X85526Y116245D02*
X101884D01*
X69729Y121953D02*
X78145D01*
X83853Y116245D01*
X85526D01*
X70020Y131200D02*
X75920Y125300D01*
X69429Y131200D02*
X70020D01*
X75920Y125300D02*
X85526D01*
X110132D01*
X68064Y120287D02*
X69729Y121953D01*
X64380Y120287D02*
X68064D01*
X60366Y116274D02*
X64380Y120287D01*
X57272Y116274D02*
X60366D01*
D16*
X28800Y141440D02*
D03*
Y133960D02*
D03*
X37658Y137700D02*
D03*
D17*
X139882Y108500D02*
D03*
X133976D02*
D03*
D18*
X175429Y86857D02*
D03*
Y93943D02*
D03*
D19*
X69429Y137106D02*
D03*
Y131200D02*
D03*
X69729Y116047D02*
D03*
Y121953D02*
D03*
X68682Y79290D02*
D03*
Y85195D02*
D03*
X68829Y55690D02*
D03*
Y61595D02*
D03*
X69129Y32490D02*
D03*
Y38395D02*
D03*
D20*
X133772Y41095D02*
D03*
X126686D02*
D03*
X133729Y51195D02*
D03*
X126643D02*
D03*
X132186Y141900D02*
D03*
X139272D02*
D03*
X132786Y129400D02*
D03*
X139872D02*
D03*
D21*
X110132Y125300D02*
D03*
D22*
X85526Y116245D02*
D03*
Y125300D02*
D03*
Y134355D02*
D03*
D23*
X173229Y133700D02*
D03*
Y119921D02*
D03*
X155629Y133500D02*
D03*
Y119720D02*
D03*
X129171Y66505D02*
D03*
X192629Y85900D02*
D03*
D40*
X115116Y10795D02*
D03*
Y20795D02*
D03*
Y30795D02*
D03*
Y40795D02*
D03*
Y50795D02*
D03*
Y60795D02*
D03*
Y70795D02*
D03*
Y80795D02*
D03*
Y90795D02*
D03*
Y100795D02*
D03*
X85116Y10795D02*
D03*
Y20795D02*
D03*
Y30795D02*
D03*
Y40795D02*
D03*
Y50795D02*
D03*
Y60795D02*
D03*
Y70795D02*
D03*
Y80795D02*
D03*
Y90795D02*
D03*
X146887Y66505D02*
D03*
Y92095D02*
D03*
X129171D02*
D03*
X192629Y95900D02*
D03*
Y105900D02*
D03*
Y115900D02*
D03*
D41*
X85116Y100795D02*
D03*
D42*
X190000Y10000D02*
D03*
X10000Y140000D02*
D03*
X190000D02*
D03*
X10000Y10000D02*
D03*
D43*
X54429Y108254D02*
D03*
X31594D02*
D03*
D44*
X42618Y89356D02*
D03*
D45*
X195029Y69074D02*
D03*
Y40774D02*
D03*
X5129Y37826D02*
D03*
X5029Y67095D02*
D03*
D46*
X195029Y61200D02*
D03*
Y32900D02*
D03*
X5129Y45700D02*
D03*
X5029Y74969D02*
D03*
D47*
X133200Y27800D02*
D03*
X56529Y140800D02*
D03*
X63929Y100500D02*
D03*
M02*
