G04*
G04 #@! TF.GenerationSoftware,Altium Limited,Altium Designer,19.1.7 (138)*
G04*
G04 Layer_Color=32896*
%FSLAX25Y25*%
%MOIN*%
G70*
G01*
G75*
%ADD14C,0.00500*%
D14*
X11866Y44733D02*
X12199Y44400D01*
Y43733D01*
X11866Y43400D01*
X11533D01*
X11200Y43733D01*
Y44400D01*
X10866Y44733D01*
X10533D01*
X10200Y44400D01*
Y43733D01*
X10533Y43400D01*
X11866Y46732D02*
X12199Y46399D01*
Y45733D01*
X11866Y45399D01*
X10533D01*
X10200Y45733D01*
Y46399D01*
X10533Y46732D01*
X12199Y47399D02*
X10200D01*
Y48732D01*
X12466Y65233D02*
X12799Y64900D01*
Y64233D01*
X12466Y63900D01*
X12133D01*
X11800Y64233D01*
Y64900D01*
X11467Y65233D01*
X11133D01*
X10800Y64900D01*
Y64233D01*
X11133Y63900D01*
X12799Y65899D02*
X10800D01*
Y66899D01*
X11133Y67232D01*
X12466D01*
X12799Y66899D01*
Y65899D01*
X10800Y67899D02*
X12133D01*
X12799Y68565D01*
X12133Y69232D01*
X10800D01*
X11800D01*
Y67899D01*
X12066Y36333D02*
X12399Y36000D01*
Y35333D01*
X12066Y35000D01*
X11733D01*
X11400Y35333D01*
Y36000D01*
X11067Y36333D01*
X10733D01*
X10400Y36000D01*
Y35333D01*
X10733Y35000D01*
X12399Y36999D02*
X10400D01*
Y37999D01*
X10733Y38332D01*
X12066D01*
X12399Y37999D01*
Y36999D01*
X10400Y38999D02*
X11733D01*
X12399Y39665D01*
X11733Y40332D01*
X10400D01*
X11400D01*
Y38999D01*
X12566Y73233D02*
X12899Y72900D01*
Y72233D01*
X12566Y71900D01*
X12233D01*
X11900Y72233D01*
Y72900D01*
X11567Y73233D01*
X11233D01*
X10900Y72900D01*
Y72233D01*
X11233Y71900D01*
X12566Y75232D02*
X12899Y74899D01*
Y74233D01*
X12566Y73899D01*
X11233D01*
X10900Y74233D01*
Y74899D01*
X11233Y75232D01*
X12899Y75899D02*
X10900D01*
Y77232D01*
X187934Y34067D02*
X187601Y34400D01*
Y35067D01*
X187934Y35400D01*
X188267D01*
X188600Y35067D01*
Y34400D01*
X188934Y34067D01*
X189267D01*
X189600Y34400D01*
Y35067D01*
X189267Y35400D01*
X187934Y32068D02*
X187601Y32401D01*
Y33067D01*
X187934Y33401D01*
X189267D01*
X189600Y33067D01*
Y32401D01*
X189267Y32068D01*
X187601Y31401D02*
X189600D01*
Y30068D01*
X187834Y62567D02*
X187501Y62900D01*
Y63567D01*
X187834Y63900D01*
X188167D01*
X188500Y63567D01*
Y62900D01*
X188833Y62567D01*
X189167D01*
X189500Y62900D01*
Y63567D01*
X189167Y63900D01*
X187834Y60568D02*
X187501Y60901D01*
Y61567D01*
X187834Y61901D01*
X189167D01*
X189500Y61567D01*
Y60901D01*
X189167Y60568D01*
X187501Y59901D02*
X189500D01*
Y58568D01*
X187834Y42567D02*
X187501Y42900D01*
Y43567D01*
X187834Y43900D01*
X188167D01*
X188500Y43567D01*
Y42900D01*
X188833Y42567D01*
X189167D01*
X189500Y42900D01*
Y43567D01*
X189167Y43900D01*
X187501Y41901D02*
X189500D01*
Y40901D01*
X189167Y40568D01*
X187834D01*
X187501Y40901D01*
Y41901D01*
X189500Y39901D02*
X188167D01*
X187501Y39235D01*
X188167Y38568D01*
X189500D01*
X188500D01*
Y39901D01*
X187934Y70967D02*
X187601Y71300D01*
Y71967D01*
X187934Y72300D01*
X188267D01*
X188600Y71967D01*
Y71300D01*
X188934Y70967D01*
X189267D01*
X189600Y71300D01*
Y71967D01*
X189267Y72300D01*
X187601Y70301D02*
X189600D01*
Y69301D01*
X189267Y68968D01*
X187934D01*
X187601Y69301D01*
Y70301D01*
X189600Y68301D02*
X188267D01*
X187601Y67635D01*
X188267Y66968D01*
X189600D01*
X188600D01*
Y68301D01*
M02*
