G04*
G04 #@! TF.GenerationSoftware,Altium Limited,Altium Designer,19.1.7 (138)*
G04*
G04 Layer_Color=255*
%FSLAX25Y25*%
%MOIN*%
G70*
G01*
G75*
%ADD16R,0.04528X0.02362*%
%ADD17R,0.04331X0.05512*%
%ADD18R,0.05512X0.04724*%
%ADD19R,0.05512X0.04331*%
%ADD20R,0.04724X0.05512*%
G04:AMPARAMS|DCode=21|XSize=125.98mil|YSize=68.9mil|CornerRadius=2.07mil|HoleSize=0mil|Usage=FLASHONLY|Rotation=90.000|XOffset=0mil|YOffset=0mil|HoleType=Round|Shape=RoundedRectangle|*
%AMROUNDEDRECTD21*
21,1,0.12598,0.06476,0,0,90.0*
21,1,0.12185,0.06890,0,0,90.0*
1,1,0.00413,0.03238,0.06093*
1,1,0.00413,0.03238,-0.06093*
1,1,0.00413,-0.03238,-0.06093*
1,1,0.00413,-0.03238,0.06093*
%
%ADD21ROUNDEDRECTD21*%
G04:AMPARAMS|DCode=22|XSize=35.43mil|YSize=68.9mil|CornerRadius=1.95mil|HoleSize=0mil|Usage=FLASHONLY|Rotation=90.000|XOffset=0mil|YOffset=0mil|HoleType=Round|Shape=RoundedRectangle|*
%AMROUNDEDRECTD22*
21,1,0.03543,0.06500,0,0,90.0*
21,1,0.03154,0.06890,0,0,90.0*
1,1,0.00390,0.03250,0.01577*
1,1,0.00390,0.03250,-0.01577*
1,1,0.00390,-0.03250,-0.01577*
1,1,0.00390,-0.03250,0.01577*
%
%ADD22ROUNDEDRECTD22*%
%ADD23R,0.05906X0.05906*%
%ADD40C,0.05906*%
%ADD41R,0.05906X0.05906*%
%ADD42C,0.06000*%
%ADD43R,0.07087X0.15748*%
%ADD44R,0.15748X0.07087*%
%ADD45R,0.05315X0.05315*%
%ADD46C,0.05315*%
D16*
X28800Y141440D02*
D03*
Y133960D02*
D03*
X37658Y137700D02*
D03*
D17*
X139882Y108500D02*
D03*
X133976D02*
D03*
D18*
X175429Y86857D02*
D03*
Y93943D02*
D03*
D19*
X69429Y137106D02*
D03*
Y131200D02*
D03*
X69729Y116047D02*
D03*
Y121953D02*
D03*
X68682Y79290D02*
D03*
Y85195D02*
D03*
X68829Y55690D02*
D03*
Y61595D02*
D03*
X69129Y32490D02*
D03*
Y38395D02*
D03*
D20*
X133772Y41095D02*
D03*
X126686D02*
D03*
X133729Y51195D02*
D03*
X126643D02*
D03*
X132186Y141900D02*
D03*
X139272D02*
D03*
X132786Y129400D02*
D03*
X139872D02*
D03*
D21*
X110132Y125300D02*
D03*
D22*
X85526Y116245D02*
D03*
Y125300D02*
D03*
Y134355D02*
D03*
D23*
X173229Y133700D02*
D03*
Y119921D02*
D03*
X155629Y133500D02*
D03*
Y119720D02*
D03*
X129171Y66505D02*
D03*
X192629Y85900D02*
D03*
D40*
X115116Y10795D02*
D03*
Y20795D02*
D03*
Y30795D02*
D03*
Y40795D02*
D03*
Y50795D02*
D03*
Y60795D02*
D03*
Y70795D02*
D03*
Y80795D02*
D03*
Y90795D02*
D03*
Y100795D02*
D03*
X85116Y10795D02*
D03*
Y20795D02*
D03*
Y30795D02*
D03*
Y40795D02*
D03*
Y50795D02*
D03*
Y60795D02*
D03*
Y70795D02*
D03*
Y80795D02*
D03*
Y90795D02*
D03*
X146887Y66505D02*
D03*
Y92095D02*
D03*
X129171D02*
D03*
X192629Y95900D02*
D03*
Y105900D02*
D03*
Y115900D02*
D03*
D41*
X85116Y100795D02*
D03*
D42*
X190000Y10000D02*
D03*
X10000Y140000D02*
D03*
X190000D02*
D03*
X10000Y10000D02*
D03*
D43*
X54429Y108254D02*
D03*
X31594D02*
D03*
D44*
X42618Y89356D02*
D03*
D45*
X195029Y69074D02*
D03*
Y40774D02*
D03*
X5129Y37826D02*
D03*
X5029Y67095D02*
D03*
D46*
X195029Y61200D02*
D03*
Y32900D02*
D03*
X5129Y45700D02*
D03*
X5029Y74969D02*
D03*
M02*
