G04*
G04 #@! TF.GenerationSoftware,Altium Limited,Altium Designer,19.1.7 (138)*
G04*
G04 Layer_Color=65535*
%FSLAX25Y25*%
%MOIN*%
G70*
G01*
G75*
%ADD10C,0.02362*%
%ADD11C,0.00984*%
%ADD12C,0.00787*%
%ADD13C,0.00700*%
%ADD14C,0.00500*%
%ADD15C,0.01000*%
D10*
X94801Y105008D02*
G03*
X94801Y105008I-1181J0D01*
G01*
D11*
X85608Y105913D02*
G03*
X85608Y105913I-492J0D01*
G01*
X29292Y144787D02*
G03*
X29292Y144787I-492J0D01*
G01*
X129663Y61387D02*
G03*
X129663Y61387I-492J0D01*
G01*
X86018Y138292D02*
G03*
X86018Y138292I-492J0D01*
G01*
D12*
X97616Y108945D02*
G03*
X102616Y108945I2500J0D01*
G01*
X89683Y2646D02*
X110549D01*
X102616Y108945D02*
X110549D01*
X89683D02*
X97616D01*
X110549Y2646D02*
Y108945D01*
X89683Y2646D02*
Y108945D01*
X32442Y143605D02*
X35985D01*
Y140456D02*
Y143605D01*
X32442Y131795D02*
X35985D01*
Y134944D01*
X51673Y90537D02*
X57972D01*
X886D02*
X33563D01*
X57972D02*
Y99198D01*
Y117309D02*
Y125970D01*
X886Y90537D02*
Y125970D01*
X57972D01*
X198966Y53326D02*
Y69074D01*
X179281Y53326D02*
X198966D01*
X179281D02*
Y76948D01*
X195029D01*
X198966Y25026D02*
Y40774D01*
X179281Y25026D02*
X198966D01*
X179281D02*
Y48648D01*
X195029D01*
X1192Y37826D02*
Y53574D01*
X20877D01*
Y29952D02*
Y53574D01*
X5129Y29952D02*
X20877D01*
X1092Y67095D02*
Y82843D01*
X20777D01*
Y59221D02*
Y82843D01*
X5029Y59221D02*
X20777D01*
X149820Y71017D02*
Y87568D01*
X126238Y71017D02*
Y87568D01*
X133584Y91091D02*
X142360D01*
X133584Y67509D02*
X142474D01*
X187629Y120900D02*
X197629D01*
Y80900D02*
Y120900D01*
X187629Y80900D02*
Y120900D01*
Y80900D02*
X197629D01*
X173067Y90400D02*
X177791D01*
X130229Y38733D02*
Y43457D01*
X130186Y48833D02*
Y53557D01*
X135729Y139538D02*
Y144262D01*
X136329Y127038D02*
Y131762D01*
X90152Y112111D02*
X105506D01*
X90152Y138489D02*
X105506D01*
Y112111D02*
Y138489D01*
X90152Y112111D02*
Y138489D01*
X177757Y115393D02*
Y122873D01*
X168702Y115393D02*
Y122873D01*
Y115393D02*
X177757D01*
X170276Y139409D02*
X176182D01*
X177757Y130747D02*
Y137440D01*
X168702D02*
X170276Y139409D01*
X176182D02*
X177757Y137440D01*
X168702Y130747D02*
Y137440D01*
X160157Y115193D02*
Y122673D01*
X151102Y115193D02*
Y122673D01*
Y115193D02*
X160157D01*
X152676Y139209D02*
X158582D01*
X160157Y130547D02*
Y137240D01*
X151102D02*
X152676Y139209D01*
X158582D02*
X160157Y137240D01*
X151102Y130547D02*
Y137240D01*
D13*
X126428Y18256D02*
X124429D01*
Y15257D01*
X126428D01*
X124429Y16757D02*
X125429D01*
X129428Y18256D02*
X127428D01*
Y15257D01*
X129428D01*
X127428Y16757D02*
X128428D01*
X130427D02*
X132427D01*
X135426Y18256D02*
X133426D01*
Y15257D01*
X135426D01*
X133426Y16757D02*
X134426D01*
X136425Y15257D02*
Y17257D01*
X136925D01*
X137425Y16757D01*
Y15257D01*
Y16757D01*
X137925Y17257D01*
X138425Y16757D01*
Y15257D01*
X140924D02*
X139924D01*
X139424Y15757D01*
Y16757D01*
X139924Y17257D01*
X140924D01*
X141424Y16757D01*
Y16257D01*
X139424D01*
X142423Y17257D02*
Y15257D01*
Y16257D01*
X142923Y16757D01*
X143423Y17257D01*
X143923D01*
X146422Y14258D02*
X146922D01*
X147422Y14758D01*
Y17257D01*
X145922D01*
X145422Y16757D01*
Y15757D01*
X145922Y15257D01*
X147422D01*
X149921D02*
X148921D01*
X148421Y15757D01*
Y16757D01*
X148921Y17257D01*
X149921D01*
X150421Y16757D01*
Y16257D01*
X148421D01*
X156419Y15257D02*
X154419D01*
X156419Y17257D01*
Y17757D01*
X155919Y18256D01*
X154919D01*
X154419Y17757D01*
X157419D02*
X157918Y18256D01*
X158918D01*
X159418Y17757D01*
Y15757D01*
X158918Y15257D01*
X157918D01*
X157419Y15757D01*
Y17757D01*
X162417Y15257D02*
X160417D01*
X162417Y17257D01*
Y17757D01*
X161917Y18256D01*
X160917D01*
X160417Y17757D01*
X163417D02*
X163916Y18256D01*
X164916D01*
X165416Y17757D01*
Y15757D01*
X164916Y15257D01*
X163916D01*
X163417Y15757D01*
Y17757D01*
X126428Y11978D02*
X124429D01*
Y10478D01*
X125429D01*
X124429D01*
Y8979D01*
X127928D02*
X128928D01*
X129428Y9479D01*
Y10478D01*
X128928Y10978D01*
X127928D01*
X127428Y10478D01*
Y9479D01*
X127928Y8979D01*
X130427Y10978D02*
Y9479D01*
X130927Y8979D01*
X132427D01*
Y10978D01*
X133426D02*
Y8979D01*
Y9979D01*
X133926Y10478D01*
X134426Y10978D01*
X134926D01*
X138425Y11978D02*
X136425D01*
Y10478D01*
X137425D01*
X136425D01*
Y8979D01*
X139924Y10978D02*
X140924D01*
X141424Y10478D01*
Y8979D01*
X139924D01*
X139424Y9479D01*
X139924Y9979D01*
X141424D01*
X144423Y10978D02*
X142923D01*
X142423Y10478D01*
Y9479D01*
X142923Y8979D01*
X144423D01*
X146922D02*
X145922D01*
X145422Y9479D01*
Y10478D01*
X145922Y10978D01*
X146922D01*
X147422Y10478D01*
Y9979D01*
X145422D01*
X124429Y3700D02*
Y6699D01*
X125929D01*
X126428Y6199D01*
Y5200D01*
X125929Y4700D01*
X124429D01*
X125429D02*
X126428Y3700D01*
X128928D02*
X127928D01*
X127428Y4200D01*
Y5200D01*
X127928Y5699D01*
X128928D01*
X129428Y5200D01*
Y4700D01*
X127428D01*
X130427Y5699D02*
X131427Y3700D01*
X132427Y5699D01*
X133426Y3700D02*
Y4200D01*
X133926D01*
Y3700D01*
X133426D01*
X138924D02*
Y5699D01*
X139924Y6699D01*
X140924Y5699D01*
Y3700D01*
Y5200D01*
X138924D01*
D14*
X184034Y115033D02*
X183701Y114700D01*
Y114033D01*
X184034Y113700D01*
X185367D01*
X185700Y114033D01*
Y114700D01*
X185367Y115033D01*
X184700D01*
Y114366D01*
X185700Y115699D02*
X183701D01*
X185700Y117032D01*
X183701D01*
Y117699D02*
X185700D01*
Y118698D01*
X185367Y119032D01*
X184034D01*
X183701Y118698D01*
Y117699D01*
Y103300D02*
Y104633D01*
Y103966D01*
X185700D01*
X183701Y106632D02*
Y105299D01*
X185700D01*
Y106632D01*
X184700Y105299D02*
Y105966D01*
X184034Y108632D02*
X183701Y108298D01*
Y107632D01*
X184034Y107299D01*
X184367D01*
X184700Y107632D01*
Y108298D01*
X185034Y108632D01*
X185367D01*
X185700Y108298D01*
Y107632D01*
X185367Y107299D01*
X183701Y109298D02*
Y110631D01*
Y109965D01*
X185700D01*
X185800Y94000D02*
X183801D01*
Y95000D01*
X184134Y95333D01*
X184800D01*
X185134Y95000D01*
Y94000D01*
Y94666D02*
X185800Y95333D01*
X184134Y97332D02*
X183801Y96999D01*
Y96333D01*
X184134Y95999D01*
X184467D01*
X184800Y96333D01*
Y96999D01*
X185134Y97332D01*
X185467D01*
X185800Y96999D01*
Y96333D01*
X185467Y95999D01*
X183801Y97999D02*
Y99332D01*
Y98665D01*
X185800D01*
X185100Y82900D02*
Y84233D01*
X184434Y83566D02*
X185767D01*
X184434Y84899D02*
X184101Y85233D01*
Y85899D01*
X184434Y86232D01*
X184767D01*
X185100Y85899D01*
Y85566D01*
Y85899D01*
X185433Y86232D01*
X185767D01*
X186100Y85899D01*
Y85233D01*
X185767Y84899D01*
X184101Y86899D02*
X185433D01*
X186100Y87565D01*
X185433Y88232D01*
X184101D01*
X184434Y88898D02*
X184101Y89231D01*
Y89898D01*
X184434Y90231D01*
X184767D01*
X185100Y89898D01*
Y89565D01*
Y89898D01*
X185433Y90231D01*
X185767D01*
X186100Y89898D01*
Y89231D01*
X185767Y88898D01*
D15*
X40529Y148398D02*
Y142400D01*
X43528D01*
X44528Y143400D01*
Y147398D01*
X43528Y148398D01*
X40529D01*
X46527Y147398D02*
X47527Y148398D01*
X49526D01*
X50526Y147398D01*
Y146399D01*
X49526Y145399D01*
X48526D01*
X49526D01*
X50526Y144399D01*
Y143400D01*
X49526Y142400D01*
X47527D01*
X46527Y143400D01*
X48828Y135152D02*
X46828D01*
X47828D01*
Y130153D01*
X46828Y129154D01*
X45829D01*
X44829Y130153D01*
X54826Y135152D02*
X50827D01*
Y132153D01*
X52826Y133152D01*
X53826D01*
X54826Y132153D01*
Y130153D01*
X53826Y129154D01*
X51827D01*
X50827Y130153D01*
X81979Y148548D02*
Y143550D01*
X82979Y142550D01*
X84978D01*
X85978Y143550D01*
Y148548D01*
X91976Y142550D02*
X87977D01*
X91976Y146549D01*
Y147548D01*
X90976Y148548D01*
X88977D01*
X87977Y147548D01*
X70100Y9598D02*
Y4600D01*
X71100Y3600D01*
X73099D01*
X74099Y4600D01*
Y9598D01*
X76098Y3600D02*
X78097D01*
X77098D01*
Y9598D01*
X76098Y8598D01*
X156628Y89498D02*
X155628Y90498D01*
X153629D01*
X152629Y89498D01*
Y88499D01*
X153629Y87499D01*
X155628D01*
X156628Y86499D01*
Y85500D01*
X155628Y84500D01*
X153629D01*
X152629Y85500D01*
X158627Y90498D02*
Y84500D01*
X160626Y86499D01*
X162626Y84500D01*
Y90498D01*
X164625Y84500D02*
X166625D01*
X165625D01*
Y90498D01*
X164625Y89498D01*
X116772Y126400D02*
Y132398D01*
X119772D01*
X120771Y131398D01*
Y129399D01*
X119772Y128399D01*
X116772D01*
X118772D02*
X120771Y126400D01*
X126769Y132398D02*
X122771D01*
Y129399D01*
X124770Y130399D01*
X125769D01*
X126769Y129399D01*
Y127400D01*
X125769Y126400D01*
X123770D01*
X122771Y127400D01*
X116972Y139300D02*
Y145298D01*
X119972D01*
X120971Y144298D01*
Y142299D01*
X119972Y141299D01*
X116972D01*
X118972D02*
X120971Y139300D01*
X125970D02*
Y145298D01*
X122970Y142299D01*
X126969D01*
X170529Y99300D02*
Y105298D01*
X173528D01*
X174528Y104298D01*
Y102299D01*
X173528Y101299D01*
X170529D01*
X172529D02*
X174528Y99300D01*
X176527Y104298D02*
X177527Y105298D01*
X179526D01*
X180526Y104298D01*
Y103299D01*
X179526Y102299D01*
X178526D01*
X179526D01*
X180526Y101299D01*
Y100300D01*
X179526Y99300D01*
X177527D01*
X176527Y100300D01*
X139386Y37595D02*
Y43593D01*
X142385D01*
X143385Y42594D01*
Y40594D01*
X142385Y39594D01*
X139386D01*
X141385D02*
X143385Y37595D01*
X149383D02*
X145384D01*
X149383Y41594D01*
Y42594D01*
X148383Y43593D01*
X146384D01*
X145384Y42594D01*
X140029Y48295D02*
Y54293D01*
X143028D01*
X144028Y53294D01*
Y51294D01*
X143028Y50294D01*
X140029D01*
X142028D02*
X144028Y48295D01*
X146027D02*
X148027D01*
X147027D01*
Y54293D01*
X146027Y53294D01*
X186529Y123100D02*
Y129098D01*
X189528D01*
X190528Y128098D01*
Y126099D01*
X189528Y125099D01*
X186529D01*
X196526Y123100D02*
X192527D01*
X196526Y127099D01*
Y128098D01*
X195526Y129098D01*
X193527D01*
X192527Y128098D01*
X171531Y57399D02*
Y55399D01*
Y56399D01*
X176529D01*
X177529Y55399D01*
Y54400D01*
X176529Y53400D01*
X177529Y62397D02*
X171531D01*
X174530Y59398D01*
Y63397D01*
X171531Y26199D02*
Y24199D01*
Y25199D01*
X176529D01*
X177529Y24199D01*
Y23200D01*
X176529Y22200D01*
X172531Y28198D02*
X171531Y29198D01*
Y31197D01*
X172531Y32197D01*
X173530D01*
X174530Y31197D01*
Y30197D01*
Y31197D01*
X175530Y32197D01*
X176529D01*
X177529Y31197D01*
Y29198D01*
X176529Y28198D01*
X29827Y48521D02*
Y50520D01*
Y49520D01*
X24829D01*
X23829Y50520D01*
Y51520D01*
X24829Y52519D01*
X23829Y42522D02*
Y46521D01*
X27828Y42522D01*
X28828D01*
X29827Y43522D01*
Y45522D01*
X28828Y46521D01*
X29627Y80801D02*
Y82801D01*
Y81801D01*
X24629D01*
X23629Y82801D01*
Y83800D01*
X24629Y84800D01*
X23629Y78802D02*
Y76803D01*
Y77802D01*
X29627D01*
X28627Y78802D01*
X169279Y148758D02*
Y142760D01*
X172278D01*
X173278Y143760D01*
Y147759D01*
X172278Y148758D01*
X169279D01*
X179276Y142760D02*
X175277D01*
X179276Y146759D01*
Y147759D01*
X178276Y148758D01*
X176277D01*
X175277Y147759D01*
X151679Y148558D02*
Y142560D01*
X154678D01*
X155678Y143560D01*
Y147559D01*
X154678Y148558D01*
X151679D01*
X157677Y142560D02*
X159677D01*
X158677D01*
Y148558D01*
X157677Y147559D01*
X68528Y147898D02*
X67528Y148898D01*
X65529D01*
X64529Y147898D01*
Y143900D01*
X65529Y142900D01*
X67528D01*
X68528Y143900D01*
X74526Y148898D02*
X72527Y147898D01*
X70527Y145899D01*
Y143900D01*
X71527Y142900D01*
X73526D01*
X74526Y143900D01*
Y144899D01*
X73526Y145899D01*
X70527D01*
X68828Y108798D02*
X67828Y109798D01*
X65829D01*
X64829Y108798D01*
Y104800D01*
X65829Y103800D01*
X67828D01*
X68828Y104800D01*
X74826Y109798D02*
X70827D01*
Y106799D01*
X72826Y107799D01*
X73826D01*
X74826Y106799D01*
Y104800D01*
X73826Y103800D01*
X71827D01*
X70827Y104800D01*
X124228Y110998D02*
X123228Y111998D01*
X121229D01*
X120229Y110998D01*
Y107000D01*
X121229Y106000D01*
X123228D01*
X124228Y107000D01*
X129226Y106000D02*
Y111998D01*
X126227Y108999D01*
X130226D01*
X70328Y95941D02*
X69328Y96940D01*
X67329D01*
X66329Y95941D01*
Y91942D01*
X67329Y90942D01*
X69328D01*
X70328Y91942D01*
X72327Y95941D02*
X73327Y96940D01*
X75326D01*
X76326Y95941D01*
Y94941D01*
X75326Y93941D01*
X74326D01*
X75326D01*
X76326Y92942D01*
Y91942D01*
X75326Y90942D01*
X73327D01*
X72327Y91942D01*
X70528Y72341D02*
X69528Y73340D01*
X67529D01*
X66529Y72341D01*
Y68342D01*
X67529Y67342D01*
X69528D01*
X70528Y68342D01*
X76526Y67342D02*
X72527D01*
X76526Y71341D01*
Y72341D01*
X75526Y73340D01*
X73527D01*
X72527Y72341D01*
X70775Y49141D02*
X69775Y50140D01*
X67776D01*
X66776Y49141D01*
Y45142D01*
X67776Y44142D01*
X69775D01*
X70775Y45142D01*
X72774Y44142D02*
X74774D01*
X73774D01*
Y50140D01*
X72774Y49141D01*
M02*
