G04*
G04 #@! TF.GenerationSoftware,Altium Limited,Altium Designer,19.1.7 (138)*
G04*
G04 Layer_Color=255*
%FSLAX25Y25*%
%MOIN*%
G70*
G01*
G75*
%ADD23R,0.05906X0.05906*%
%ADD40C,0.05906*%
%ADD41R,0.05906X0.05906*%
%ADD42C,0.06000*%
%ADD43R,0.07087X0.15748*%
%ADD44R,0.15748X0.07087*%
%ADD45R,0.05315X0.05315*%
%ADD46C,0.05315*%
D23*
X129171Y66505D02*
D03*
X192629Y85900D02*
D03*
D40*
X115116Y10795D02*
D03*
Y20795D02*
D03*
Y30795D02*
D03*
Y40795D02*
D03*
Y50795D02*
D03*
Y60795D02*
D03*
Y70795D02*
D03*
Y80795D02*
D03*
Y90795D02*
D03*
Y100795D02*
D03*
X85116Y10795D02*
D03*
Y20795D02*
D03*
Y30795D02*
D03*
Y40795D02*
D03*
Y50795D02*
D03*
Y60795D02*
D03*
Y70795D02*
D03*
Y80795D02*
D03*
Y90795D02*
D03*
X146887Y66505D02*
D03*
Y92095D02*
D03*
X129171D02*
D03*
X192629Y95900D02*
D03*
Y105900D02*
D03*
Y115900D02*
D03*
D41*
X85116Y100795D02*
D03*
D42*
X190000Y10000D02*
D03*
X10000Y140000D02*
D03*
X190000D02*
D03*
X10000Y10000D02*
D03*
D43*
X54429Y108254D02*
D03*
X31594D02*
D03*
D44*
X42618Y89356D02*
D03*
D45*
X195029Y69074D02*
D03*
Y40774D02*
D03*
X5129Y37826D02*
D03*
X5029Y67095D02*
D03*
D46*
X195029Y61200D02*
D03*
Y32900D02*
D03*
X5129Y45700D02*
D03*
X5029Y74969D02*
D03*
M02*
