G04*
G04 #@! TF.GenerationSoftware,Altium Limited,Altium Designer,19.1.7 (138)*
G04*
G04 Layer_Color=8388736*
%FSLAX25Y25*%
%MOIN*%
G70*
G01*
G75*
%ADD24R,0.05328X0.03162*%
%ADD25R,0.05131X0.06312*%
%ADD26R,0.06312X0.05524*%
%ADD27R,0.06312X0.05131*%
%ADD28R,0.05524X0.06312*%
G04:AMPARAMS|DCode=29|XSize=133.98mil|YSize=76.9mil|CornerRadius=6.07mil|HoleSize=0mil|Usage=FLASHONLY|Rotation=90.000|XOffset=0mil|YOffset=0mil|HoleType=Round|Shape=RoundedRectangle|*
%AMROUNDEDRECTD29*
21,1,0.13398,0.06476,0,0,90.0*
21,1,0.12185,0.07690,0,0,90.0*
1,1,0.01213,0.03238,0.06093*
1,1,0.01213,0.03238,-0.06093*
1,1,0.01213,-0.03238,-0.06093*
1,1,0.01213,-0.03238,0.06093*
%
%ADD29ROUNDEDRECTD29*%
G04:AMPARAMS|DCode=30|XSize=43.43mil|YSize=76.9mil|CornerRadius=5.95mil|HoleSize=0mil|Usage=FLASHONLY|Rotation=90.000|XOffset=0mil|YOffset=0mil|HoleType=Round|Shape=RoundedRectangle|*
%AMROUNDEDRECTD30*
21,1,0.04343,0.06500,0,0,90.0*
21,1,0.03154,0.07690,0,0,90.0*
1,1,0.01190,0.03250,0.01577*
1,1,0.01190,0.03250,-0.01577*
1,1,0.01190,-0.03250,-0.01577*
1,1,0.01190,-0.03250,0.01577*
%
%ADD30ROUNDEDRECTD30*%
%ADD31R,0.06706X0.06706*%
%ADD32C,0.06706*%
%ADD33R,0.06706X0.06706*%
%ADD34C,0.06800*%
%ADD35R,0.07887X0.16548*%
%ADD36R,0.16548X0.07887*%
%ADD37R,0.06115X0.06115*%
%ADD38C,0.06115*%
%ADD39C,0.05800*%
D24*
X28800Y141440D02*
D03*
Y133960D02*
D03*
X37658Y137700D02*
D03*
D25*
X139882Y108500D02*
D03*
X133976D02*
D03*
D26*
X175429Y86857D02*
D03*
Y93943D02*
D03*
D27*
X69429Y137106D02*
D03*
Y131200D02*
D03*
X69729Y116047D02*
D03*
Y121953D02*
D03*
X68682Y79290D02*
D03*
Y85195D02*
D03*
X68829Y55690D02*
D03*
Y61595D02*
D03*
X69129Y32490D02*
D03*
Y38395D02*
D03*
D28*
X133772Y41095D02*
D03*
X126686D02*
D03*
X133729Y51195D02*
D03*
X126643D02*
D03*
X132186Y141900D02*
D03*
X139272D02*
D03*
X132786Y129400D02*
D03*
X139872D02*
D03*
D29*
X110132Y125300D02*
D03*
D30*
X85526Y116245D02*
D03*
Y125300D02*
D03*
Y134355D02*
D03*
D31*
X173229Y133700D02*
D03*
Y119921D02*
D03*
X155629Y133500D02*
D03*
Y119720D02*
D03*
X129171Y66505D02*
D03*
X192629Y85900D02*
D03*
D32*
X115116Y10795D02*
D03*
Y20795D02*
D03*
Y30795D02*
D03*
Y40795D02*
D03*
Y50795D02*
D03*
Y60795D02*
D03*
Y70795D02*
D03*
Y80795D02*
D03*
Y90795D02*
D03*
Y100795D02*
D03*
X85116Y10795D02*
D03*
Y20795D02*
D03*
Y30795D02*
D03*
Y40795D02*
D03*
Y50795D02*
D03*
Y60795D02*
D03*
Y70795D02*
D03*
Y80795D02*
D03*
Y90795D02*
D03*
X146887Y66505D02*
D03*
Y92095D02*
D03*
X129171D02*
D03*
X192629Y95900D02*
D03*
Y105900D02*
D03*
Y115900D02*
D03*
D33*
X85116Y100795D02*
D03*
D34*
X190000Y10000D02*
D03*
X10000Y140000D02*
D03*
X190000D02*
D03*
X10000Y10000D02*
D03*
D35*
X54429Y108254D02*
D03*
X31594D02*
D03*
D36*
X42618Y89356D02*
D03*
D37*
X195029Y69074D02*
D03*
Y40774D02*
D03*
X5129Y37826D02*
D03*
X5029Y67095D02*
D03*
D38*
X195029Y61200D02*
D03*
Y32900D02*
D03*
X5129Y45700D02*
D03*
X5029Y74969D02*
D03*
D39*
X133200Y27800D02*
D03*
X56529Y140800D02*
D03*
X63929Y100500D02*
D03*
M02*
